0
SECTION
2
HEADER
9
$INSUNITS
70
4
9
$ACADVER
1
AC1014
9
$HANDSEED
5
FFFF
0
ENDSEC
0
SECTION
2
TABLES
0
TABLE
2
VPORT
5
8
100
AcDbSymbolTable
0
ENDTAB
0
TABLE
2
LTYPE
5
5
100
AcDbSymbolTable
0
LTYPE
5
14
100
AcDbSymbolTableRecord
100
AcDbLinetypeTableRecord
2
BYBLOCK
70
0
0
LTYPE
5
15
100
AcDbSymbolTableRecord
100
AcDbLinetypeTableRecord
2
BYLAYER
70
0
0
ENDTAB
0
TABLE
2
LAYER
5
2
100
AcDbSymbolTable
70
2
0
LAYER
5
50
100
AcDbSymbolTableRecord
100
AcDbLayerTableRecord
2
0
70
0
6
CONTINUOUS
0
ENDTAB
0
TABLE
2
STYLE
5
3
100
AcDbSymbolTable
70
1
0
STYLE
5
11
100
AcDbSymbolTableRecord
100
AcDbTextStyleTableRecord
2
STANDARD
70
0
0
ENDTAB
0
TABLE
2
VIEW
5
6
100
AcDbSymbolTable
70
0
0
ENDTAB
0
TABLE
2
UCS
5
7
100
AcDbSymbolTable
70
0
0
ENDTAB
0
TABLE
2
APPID
5
9
100
AcDbSymbolTable
70
2
0
APPID
5
12
100
AcDbSymbolTableRecord
100
AcDbRegAppTableRecord
2
ACAD
70
0
0
ENDTAB
0
TABLE
2
DIMSTYLE
5
A
100
AcDbSymbolTable
70
1
0
ENDTAB
0
TABLE
2
BLOCK_RECORD
5
1
100
AcDbSymbolTable
70
1
0
BLOCK_RECORD
5
1F
100
AcDbSymbolTableRecord
100
AcDbBlockTableRecord
2
*MODEL_SPACE
0
BLOCK_RECORD
5
1B
100
AcDbSymbolTableRecord
100
AcDbBlockTableRecord
2
*PAPER_SPACE
0
ENDTAB
0
ENDSEC
0
SECTION
2
BLOCKS
0
BLOCK
5
20
100
AcDbEntity
100
AcDbBlockBegin
2
*MODEL_SPACE
0
ENDBLK
5
21
100
AcDbEntity
100
AcDbBlockEnd
0
BLOCK
5
1C
100
AcDbEntity
100
AcDbBlockBegin
2
*PAPER_SPACE
0
ENDBLK
5
1D
100
AcDbEntity
100
AcDbBlockEnd
0
ENDSEC
0
SECTION
2
ENTITIES
0
LWPOLYLINE
5
100
100
AcDbEntity
8
0
100
AcDbPolyline
90
8
70
1
43
0.0
10
-21.537499999999952
20
-12.650000000000006
42
0.41421356237309509
10
-22.037499999999923
20
-13.150000000000004
10
-22.037499999999923
20
-24.950000000000003
42
0.41421356237309509
10
-21.537499999999952
20
-25.449999999999999
10
-7.0374999999999943
20
-25.449999999999999
42
0.41421356237309509
10
-6.5374999999999517
20
-24.950000000000003
10
-6.5374999999999517
20
-13.150000000000004
42
0.41421356237309509
10
-7.0374999999999943
20
-12.650000000000006
0
LWPOLYLINE
5
101
100
AcDbEntity
8
0
100
AcDbPolyline
90
8
70
1
43
0.0
10
99.406249999999972
20
-13.150000000000004
10
99.406249999999972
20
-24.950000000000003
42
0.41421356237309509
10
99.906250000000014
20
-25.449999999999999
10
114.40624999999997
20
-25.449999999999999
42
0.41421356237309509
10
114.90624999999994
20
-24.950000000000003
10
114.90625000000001
20
-13.150000000000004
42
0.41421356237309509
10
114.40624999999997
20
-12.649999999999997
10
99.906250000000014
20
-12.650000000000006
42
0.41421356237309509
0
LWPOLYLINE
5
102
100
AcDbEntity
8
0
100
AcDbPolyline
90
8
70
1
43
0.0
10
118.32125000000005
20
-22.924999999999997
10
119.99125000000006
20
-22.925000000000033
42
-0.41421356237309509
10
120.49125000000004
20
-23.425000000000004
10
120.49125000000006
20
-27.635000000000005
42
-0.41421356237309509
10
119.99125000000006
20
-28.135000000000005
10
118.32125000000005
20
-28.134999999999977
42
-0.41421356237309509
10
117.82125000000008
20
-27.635000000000005
10
117.82125000000005
20
-23.425000000000004
42
-0.41421356237309509
0
LWPOLYLINE
5
103
100
AcDbEntity
8
0
100
AcDbPolyline
90
8
70
1
43
0.0
10
136.33750000000006
20
-32.200000000000003
10
136.33750000000003
20
-43.999999999999993
42
-0.41421356237309509
10
135.83750000000003
20
-44.5
10
121.33750000000006
20
-44.499999999999964
42
-0.41421356237309509
10
120.83750000000009
20
-43.999999999999993
10
120.83750000000006
20
-32.200000000000003
42
-0.41421356237309509
10
121.33750000000006
20
-31.70000000000001
10
135.83750000000003
20
-31.699999999999964
42
-0.41421356237309509
0
LWPOLYLINE
5
104
100
AcDbEntity
8
0
100
AcDbPolyline
90
8
70
1
43
0.0
10
-121.33749999999999
20
-44.5
42
0.41421356237309509
10
-120.83749999999998
20
-43.999999999999993
10
-120.83749999999998
20
-32.200000000000003
42
0.41421356237309509
10
-121.33749999999999
20
-31.70000000000001
10
-135.83749999999998
20
-31.70000000000001
42
0.41421356237309509
10
-136.33749999999998
20
-32.200000000000003
10
-136.33749999999998
20
-43.999999999999993
42
0.41421356237309509
10
-135.83749999999998
20
-44.5
0
LWPOLYLINE
5
105
100
AcDbEntity
8
0
100
AcDbPolyline
90
8
70
1
43
0.0
10
50.612500000000011
20
-13.150000000000004
10
50.61250000000004
20
-24.950000000000003
42
-0.41421356237309509
10
50.11250000000004
20
-25.449999999999999
10
35.612500000000011
20
-25.449999999999974
42
-0.41421356237309509
10
35.11250000000004
20
-24.950000000000003
10
35.112500000000011
20
-13.150000000000004
42
-0.41421356237309509
10
35.612500000000011
20
-12.650000000000006
10
50.11250000000004
20
-12.650000000000032
42
-0.41421356237309509
0
LWPOLYLINE
5
106
100
AcDbEntity
8
0
100
AcDbPolyline
90
8
70
1
43
0.0
10
141.10000000000008
20
-13.150000000000004
10
141.10000000000002
20
-24.950000000000003
42
-0.41421356237309509
10
140.60000000000002
20
-25.45000000000001
10
126.10000000000007
20
-25.450000000000045
42
-0.41421356237309509
10
125.60000000000002
20
-24.950000000000003
10
125.60000000000005
20
-13.150000000000004
42
-0.41421356237309509
10
126.10000000000007
20
-12.650000000000006
10
140.60000000000002
20
-12.649999999999961
42
-0.41421356237309509
0
LWPOLYLINE
5
107
100
AcDbEntity
8
0
100
AcDbPolyline
90
8
70
1
43
0.0
10
12.012500000000017
20
-25.449999999999999
42
0.41421356237309509
10
12.512499999999989
20
-24.950000000000003
10
12.512499999999989
20
-13.150000000000004
42
0.41421356237309509
10
12.012500000000017
20
-12.650000000000006
10
-2.4875000000000114
20
-12.650000000000006
42
0.41421356237309509
10
-2.9874999999999829
20
-13.150000000000004
10
-2.9874999999999829
20
-24.950000000000003
42
0.41421356237309509
10
-2.4875000000000114
20
-25.449999999999999
0
LWPOLYLINE
5
108
100
AcDbEntity
8
0
100
AcDbPolyline
90
8
70
1
43
0.0
10
31.5625
20
-13.150000000000004
10
31.562500000000036
20
-24.950000000000003
42
-0.41421356237309509
10
31.062500000000028
20
-25.45000000000001
10
16.5625
20
-25.449999999999974
42
-0.41421356237309509
10
16.062500000000028
20
-24.950000000000003
10
16.062499999999993
20
-13.150000000000004
42
-0.41421356237309509
10
16.5625
20
-12.649999999999997
10
31.062500000000028
20
-12.650000000000032
42
-0.41421356237309509
0
LWPOLYLINE
5
109
100
AcDbEntity
8
0
100
AcDbPolyline
90
8
70
1
43
0.0
10
69.162500000000051
20
-25.449999999999999
42
0.41421356237309509
10
69.662500000000023
20
-24.950000000000003
10
69.662500000000023
20
-13.150000000000004
42
0.41421356237309509
10
69.162500000000051
20
-12.650000000000006
10
54.662500000000023
20
-12.650000000000006
42
0.41421356237309509
10
54.162500000000051
20
-13.150000000000004
10
54.162500000000051
20
-24.950000000000003
42
0.41421356237309509
10
54.662500000000023
20
-25.45000000000001
0
LWPOLYLINE
5
110
100
AcDbEntity
8
0
100
AcDbPolyline
90
8
70
1
43
0.0
10
110.14375000000001
20
-32.200000000000003
42
0.41421356237309509
10
109.64375000000004
20
-31.70000000000001
10
95.143750000000011
20
-31.70000000000001
42
0.41421356237309509
10
94.64375000000004
20
-32.200000000000003
10
94.64375000000004
20
-43.999999999999993
42
0.41421356237309509
10
95.143750000000011
20
-44.5
10
109.64375000000004
20
-44.5
42
0.41421356237309509
10
110.14375000000001
20
-43.999999999999993
0
LWPOLYLINE
5
111
100
AcDbEntity
8
0
100
AcDbPolyline
90
8
70
1
43
0.0
10
88.212500000000063
20
-25.449999999999999
42
0.41421356237309509
10
88.712500000000034
20
-24.950000000000003
10
88.712500000000034
20
-13.150000000000004
42
0.41421356237309509
10
88.212500000000063
20
-12.650000000000006
10
73.712500000000034
20
-12.650000000000006
42
0.41421356237309509
10
73.212500000000063
20
-13.150000000000004
10
73.212500000000063
20
-24.950000000000003
42
0.41421356237309509
10
73.712500000000034
20
-25.449999999999999
0
LWPOLYLINE
5
112
100
AcDbEntity
8
0
100
AcDbPolyline
90
8
70
1
43
0.0
10
94.321249999999992
20
-22.924999999999997
10
95.991250000000008
20
-22.924999999999962
42
-0.41421356237309509
10
96.491250000000051
20
-23.425000000000004
10
96.491250000000008
20
-27.635000000000005
42
-0.41421356237309509
10
95.991250000000008
20
-28.135000000000005
10
94.321249999999992
20
-28.134999999999977
42
-0.41421356237309509
10
93.82125000000002
20
-27.635000000000005
10
93.821249999999992
20
-23.425000000000004
42
-0.41421356237309509
0
LWPOLYLINE
5
113
100
AcDbEntity
8
0
100
AcDbPolyline
90
8
70
1
43
0.0
10
68.450000000000131
20
-43.999999999999993
42
0.41421356237309509
10
68.950000000000102
20
-44.5
10
83.45000000000006
20
-44.5
42
0.41421356237309509
10
83.950000000000031
20
-43.999999999999993
10
83.950000000000102
20
-32.200000000000003
42
0.41421356237309509
10
83.45000000000006
20
-31.70000000000001
10
68.950000000000102
20
-31.70000000000001
42
0.41421356237309509
10
68.450000000000131
20
-32.200000000000003
0
LWPOLYLINE
5
114
100
AcDbEntity
8
0
100
AcDbPolyline
90
8
70
1
43
0.0
10
-109.64374999999997
20
-31.70000000000001
10
-95.14374999999994
20
-31.699999999999999
42
-0.41421356237307427
10
-94.643749999999969
20
-32.200000000000003
10
-94.643749999999969
20
-43.999999999999993
42
-0.41421356237307427
10
-95.14374999999994
20
-44.5
10
-109.64374999999997
20
-44.5
42
-0.41421356237309509
10
-110.14374999999998
20
-43.999999999999993
10
-110.14374999999998
20
-32.200000000000003
42
-0.41421356237309509
0
LWPOLYLINE
5
115
100
AcDbEntity
8
0
100
AcDbPolyline
90
8
70
1
43
0.0
10
-88.712499999999963
20
5.8999999999999986
10
-88.712499999999963
20
-5.8999999999999986
42
0.41421356237309509
10
-88.212499999999991
20
-6.3999999999999968
10
-73.712499999999963
20
-6.3999999999999968
42
0.41421356237309509
10
-73.212499999999991
20
-5.8999999999999986
10
-73.212499999999991
20
5.8999999999999986
42
0.41421356237309509
10
-73.712499999999963
20
6.3999999999999968
10
-88.212499999999991
20
6.3999999999999968
42
0.41421356237309509
0
LWPOLYLINE
5
116
100
AcDbEntity
8
0
100
AcDbPolyline
90
8
70
1
43
0.0
10
26.799999999999997
20
44
42
0.41421356237309509
10
26.300000000000026
20
44.5
10
11.800000000000068
20
44.5
42
0.41421356237309509
10
11.300000000000026
20
44
10
11.300000000000026
20
32.199999999999996
42
0.41421356237309509
10
11.800000000000068
20
31.699999999999999
10
26.300000000000097
20
31.699999999999999
42
0.4142135623730534
10
26.800000000000068
20
32.199999999999996
0
LWPOLYLINE
5
117
100
AcDbEntity
8
0
100
AcDbPolyline
90
8
70
1
43
0.0
10
1.7750000000000909
20
13.149999999999999
42
0.41421356237309509
10
2.2750000000000625
20
12.650000000000002
10
16.775000000000091
20
12.650000000000002
42
0.41421356237309509
10
17.275000000000063
20
13.149999999999999
10
17.275000000000063
20
24.950000000000003
42
0.41421356237309509
10
16.775000000000091
20
25.449999999999999
10
2.2750000000000625
20
25.449999999999999
42
0.41421356237309509
10
1.7750000000000909
20
24.950000000000003
0
LWPOLYLINE
5
118
100
AcDbEntity
8
0
100
AcDbPolyline
90
8
70
1
43
0.0
10
-30.849999999999937
20
31.699999999999999
42
0.41421356237309509
10
-30.349999999999966
20
32.199999999999996
10
-30.349999999999966
20
44
42
0.41421356237309509
10
-30.849999999999937
20
44.5
10
-45.349999999999966
20
44.5
42
0.41421356237309509
10
-45.849999999999937
20
44
10
-45.849999999999937
20
32.199999999999996
42
0.41421356237309509
10
-45.349999999999966
20
31.699999999999999
0
LWPOLYLINE
5
119
100
AcDbEntity
8
0
100
AcDbPolyline
90
8
70
1
43
0.0
10
59.425000000000026
20
12.649999999999997
10
73.924999999999983
20
12.649999999999997
42
0.41421356237309509
10
74.425000000000026
20
13.149999999999999
10
74.424999999999955
20
24.950000000000003
42
0.41421356237309509
10
73.924999999999983
20
25.449999999999999
10
59.425000000000026
20
25.449999999999999
42
0.41421356237309509
10
58.924999999999983
20
24.950000000000003
10
58.924999999999983
20
13.149999999999999
42
0.41421356237309509
0
LWPOLYLINE
5
120
100
AcDbEntity
8
0
100
AcDbPolyline
90
8
70
1
43
0.0
10
-83.449999999999989
20
44.5
10
-68.949999999999989
20
44.500000000000014
42
-0.41421356237311585
10
-68.44999999999996
20
44
10
-68.44999999999996
20
32.199999999999996
42
-0.41421356237309509
10
-68.94999999999996
20
31.699999999999999
10
-83.449999999999989
20
31.699999999999989
42
-0.41421356237309509
10
-83.949999999999989
20
32.199999999999996
10
-83.949999999999989
20
44
42
-0.41421356237309509
0
LWPOLYLINE
5
121
100
AcDbEntity
8
0
100
AcDbPolyline
90
8
70
1
43
0.0
10
-46.634999999999991
20
-42.474999999999994
10
-46.634999999999991
20
-46.685000000000009
42
0.41421356237309509
10
-46.135000000000019
20
-47.185000000000016
10
-44.465000000000003
20
-47.185000000000016
42
0.41421356237309509
10
-43.965000000000032
20
-46.685000000000009
10
-43.965000000000032
20
-42.474999999999994
42
0.41421356237309509
10
-44.465000000000003
20
-41.974999999999987
10
-46.135000000000019
20
-41.974999999999987
42
0.41421356237309509
0
LWPOLYLINE
5
122
100
AcDbEntity
8
0
100
AcDbPolyline
90
8
70
1
43
0.0
10
-69.16249999999998
20
-6.3999999999999968
10
-54.662499999999952
20
-6.3999999999999968
42
0.41421356237309509
10
-54.16249999999998
20
-5.8999999999999986
10
-54.16249999999998
20
5.8999999999999986
42
0.41421356237309509
10
-54.662499999999952
20
6.3999999999999968
10
-69.16249999999998
20
6.3999999999999968
42
0.41421356237309509
10
-69.662499999999952
20
5.8999999999999986
10
-69.662499999999952
20
-5.8999999999999986
42
0.41421356237309509
0
LWPOLYLINE
5
123
100
AcDbEntity
8
0
100
AcDbPolyline
90
8
70
1
43
0.0
10
68.950000000000102
20
44.5
42
0.41421356237309509
10
68.450000000000131
20
44
10
68.45000000000006
20
32.199999999999996
42
0.41421356237309509
10
68.950000000000102
20
31.699999999999999
10
83.450000000000131
20
31.699999999999999
42
0.4142135623730534
10
83.950000000000031
20
32.199999999999996
10
83.950000000000031
20
44
42
0.41421356237309509
10
83.45000000000006
20
44.5
0
LWPOLYLINE
5
124
100
AcDbEntity
8
0
100
AcDbPolyline
90
8
70
1
43
0.0
10
-97.524999999999977
20
12.650000000000002
42
0.41421356237309509
10
-97.024999999999977
20
13.149999999999999
10
-97.024999999999977
20
24.950000000000003
42
0.41421356237309509
10
-97.524999999999977
20
25.449999999999999
10
-112.02499999999998
20
25.449999999999999
42
0.41421356237309509
10
-112.52499999999998
20
24.950000000000003
10
-112.52499999999998
20
13.149999999999999
42
0.41421356237309509
10
-112.02499999999998
20
12.650000000000002
0
LWPOLYLINE
5
125
100
AcDbEntity
8
0
100
AcDbPolyline
90
8
70
1
43
0.0
10
-83.449999999999989
20
-31.70000000000001
42
0.41421356237309509
10
-83.949999999999989
20
-32.200000000000003
10
-83.949999999999989
20
-43.999999999999993
42
0.41421356237309509
10
-83.449999999999989
20
-44.5
10
-68.949999999999989
20
-44.5
42
0.41421356237311585
10
-68.449999999999989
20
-43.999999999999993
10
-68.449999999999989
20
-32.200000000000003
42
0.41421356237311585
10
-68.949999999999989
20
-31.70000000000001
0
LWPOLYLINE
5
126
100
AcDbEntity
8
0
100
AcDbPolyline
90
8
70
1
43
0.0
10
-93.474999999999994
20
13.149999999999999
42
0.41421356237309509
10
-92.974999999999994
20
12.650000000000002
10
-78.474999999999966
20
12.650000000000002
42
0.41421356237309509
10
-77.974999999999966
20
13.149999999999999
10
-77.974999999999994
20
24.950000000000003
42
0.41421356237309509
10
-78.474999999999966
20
25.449999999999999
10
-92.974999999999994
20
25.449999999999999
42
0.41421356237309509
10
-93.474999999999966
20
24.950000000000003
0
LWPOLYLINE
5
127
100
AcDbEntity
8
0
100
AcDbPolyline
90
8
70
1
43
0.0
10
39.875000000000043
20
24.950000000000003
10
39.875000000000043
20
13.149999999999999
42
0.41421356237309509
10
40.375000000000085
20
12.650000000000002
10
54.875000000000043
20
12.650000000000002
42
0.41421356237309509
10
55.375000000000085
20
13.149999999999999
10
55.375000000000085
20
24.950000000000003
42
0.4142135623730534
10
54.875000000000114
20
25.449999999999999
10
40.375000000000085
20
25.449999999999999
42
0.41421356237309509
0
LWPOLYLINE
5
128
100
AcDbEntity
8
0
100
AcDbPolyline
90
8
70
1
43
0.0
10
-55.374999999999979
20
13.149999999999999
42
0.41421356237309509
10
-54.874999999999972
20
12.650000000000002
10
-40.374999999999943
20
12.649999999999997
42
0.41421356237309509
10
-39.874999999999972
20
13.149999999999999
10
-39.874999999999972
20
24.950000000000003
42
0.41421356237309509
10
-40.374999999999943
20
25.449999999999999
10
-54.874999999999972
20
25.449999999999999
42
0.41421356237309509
10
-55.374999999999943
20
24.950000000000003
0
LWPOLYLINE
5
129
100
AcDbEntity
8
0
100
AcDbPolyline
90
8
70
1
43
0.0
10
-139.04124999999996
20
-3.8750000000000018
42
0.41421356237309509
10
-139.54124999999999
20
-4.375
10
-139.54124999999999
20
-8.5850000000000026
42
0.41421356237309509
10
-139.04124999999996
20
-9.0850000000000009
10
-137.37124999999997
20
-9.0850000000000009
42
0.41421356237309509
10
-136.87124999999997
20
-8.5850000000000026
10
-136.87124999999997
20
-4.375
42
0.41421356237309509
10
-137.37124999999997
20
-3.8750000000000018
0
LWPOLYLINE
5
130
100
AcDbEntity
8
0
100
AcDbPolyline
90
8
70
1
43
0.0
10
107.04999999999998
20
31.699999999999999
10
121.55000000000001
20
31.699999999999999
42
0.41421356237309509
10
122.04999999999998
20
32.199999999999996
10
122.05000000000005
20
44
42
0.41421356237309509
10
121.55000000000001
20
44.5
10
107.04999999999998
20
44.5
42
0.41421356237309509
10
106.55000000000001
20
44
10
106.55000000000001
20
32.199999999999996
42
0.41421356237309509
0
LWPOLYLINE
5
131
100
AcDbEntity
8
0
100
AcDbPolyline
90
8
70
1
43
0.0
10
-102.49999999999997
20
44.5
42
0.41421356237309509
10
-102.99999999999997
20
44
10
-102.99999999999997
20
32.199999999999996
42
0.41421356237309509
10
-102.49999999999997
20
31.699999999999999
10
-87.999999999999972
20
31.699999999999999
42
0.41421356237309509
10
-87.499999999999972
20
32.199999999999996
10
-87.499999999999972
20
44
42
0.41421356237309509
10
-87.999999999999972
20
44.5
0
LWPOLYLINE
5
132
100
AcDbEntity
8
0
100
AcDbPolyline
90
8
70
1
43
0.0
10
45.85000000000008
20
44
10
45.850000000000037
20
32.199999999999996
42
-0.41421356237309509
10
45.350000000000037
20
31.699999999999999
10
30.85000000000008
20
31.700000000000024
42
-0.41421356237309509
10
30.350000000000108
20
32.199999999999996
10
30.35000000000008
20
44
42
-0.41421356237309509
10
30.85000000000008
20
44.5
10
45.350000000000037
20
44.500000000000043
42
-0.41421356237309509
0
LWPOLYLINE
5
133
100
AcDbEntity
8
0
100
AcDbPolyline
90
8
70
1
43
0.0
10
-107.26249999999996
20
6.3999999999999968
10
-92.762499999999974
20
6.4000000000000057
42
-0.41421356237309509
10
-92.26249999999996
20
5.8999999999999986
10
-92.26249999999996
20
-5.8999999999999986
42
-0.41421356237309509
10
-92.762499999999974
20
-6.3999999999999968
10
-107.26249999999996
20
-6.4000000000000057
42
-0.41421356237309509
10
-107.76249999999997
20
-5.8999999999999986
10
-107.76249999999997
20
5.8999999999999986
42
-0.41421356237309509
0
LWPOLYLINE
5
134
100
AcDbEntity
8
0
100
AcDbPolyline
90
8
70
1
43
0.0
10
135.83750000000003
20
12.650000000000002
42
0.41421356237309509
10
136.33749999999998
20
13.149999999999999
10
136.33750000000006
20
24.950000000000003
42
0.41421356237309509
10
135.83750000000003
20
25.449999999999999
10
121.33750000000006
20
25.449999999999999
42
0.41421356237309509
10
120.83750000000009
20
24.950000000000003
10
120.83750000000009
20
13.149999999999999
42
0.41421356237309509
10
121.33750000000006
20
12.649999999999997
0
LWPOLYLINE
5
135
100
AcDbEntity
8
0
100
AcDbPolyline
90
8
70
1
43
0.0
10
-17.27499999999992
20
24.950000000000003
10
-17.27499999999992
20
13.149999999999999
42
0.41421356237309509
10
-16.774999999999949
20
12.650000000000002
10
-2.2749999999999204
20
12.650000000000002
42
0.41421356237309509
10
-1.7749999999999488
20
13.149999999999999
10
-1.7749999999999488
20
24.950000000000003
42
0.41421356237309509
10
-2.2749999999999204
20
25.449999999999999
10
-16.774999999999949
20
25.449999999999999
42
0.41421356237309509
0
LWPOLYLINE
5
136
100
AcDbEntity
8
0
100
AcDbPolyline
90
8
70
1
43
0.0
10
-122.04999999999998
20
32.199999999999996
42
0.41421356237309509
10
-121.54999999999998
20
31.699999999999999
10
-107.04999999999998
20
31.699999999999999
42
0.41421356237309509
10
-106.54999999999998
20
32.199999999999996
10
-106.54999999999998
20
44
42
0.41421356237309509
10
-107.04999999999998
20
44.5
10
-121.54999999999998
20
44.5
42
0.41421356237309509
10
-122.04999999999998
20
44
0
LWPOLYLINE
5
137
100
AcDbEntity
8
0
100
AcDbPolyline
90
8
70
1
43
0.0
10
-35.82499999999996
20
25.449999999999999
42
0.41421356237309509
10
-36.324999999999932
20
24.950000000000003
10
-36.324999999999932
20
13.149999999999999
42
0.41421356237309509
10
-35.82499999999996
20
12.650000000000002
10
-21.324999999999932
20
12.649999999999997
42
0.41421356237309509
10
-20.82499999999996
20
13.149999999999999
10
-20.82499999999996
20
24.950000000000003
42
0.41421356237309509
10
-21.324999999999932
20
25.449999999999999
0
LWPOLYLINE
5
138
100
AcDbEntity
8
0
100
AcDbPolyline
90
8
70
1
43
0.0
10
87.999999999999972
20
31.699999999999999
10
102.5
20
31.699999999999999
42
0.41421356237309509
10
102.99999999999997
20
32.199999999999996
10
102.99999999999997
20
44
42
0.41421356237309509
10
102.5
20
44.5
10
87.999999999999972
20
44.5
42
0.41421356237309509
10
87.5
20
44
10
87.5
20
32.199999999999996
42
0.41421356237309509
0
LWPOLYLINE
5
139
100
AcDbEntity
8
0
100
AcDbPolyline
90
8
70
1
43
0.0
10
7.7500000000000568
20
44
42
0.41421356237309509
10
7.2500000000000853
20
44.5
10
-7.2499999999999432
20
44.5
42
0.41421356237309509
10
-7.7499999999999147
20
44
10
-7.7499999999999147
20
32.199999999999996
42
0.41421356237309509
10
-7.2499999999999432
20
31.699999999999999
10
7.2500000000000853
20
31.699999999999999
42
0.41421356237309509
10
7.7500000000000568
20
32.199999999999996
0
LWPOLYLINE
5
140
100
AcDbEntity
8
0
100
AcDbPolyline
90
8
70
1
43
0.0
10
-59.424999999999955
20
12.650000000000002
42
0.41421356237309509
10
-58.924999999999947
20
13.149999999999999
10
-58.924999999999947
20
24.950000000000003
42
0.41421356237309509
10
-59.424999999999955
20
25.449999999999999
10
-73.924999999999983
20
25.449999999999999
42
0.41421356237309509
10
-74.424999999999983
20
24.950000000000003
10
-74.424999999999983
20
13.149999999999999
42
0.41421356237309509
10
-73.924999999999983
20
12.649999999999997
0
LWPOLYLINE
5
141
100
AcDbEntity
8
0
100
AcDbPolyline
90
8
70
1
43
0.0
10
64.90000000000002
20
44
42
0.41421356237309509
10
64.400000000000048
20
44.5
10
49.900000000000091
20
44.5
42
0.41421356237309509
10
49.400000000000048
20
44
10
49.400000000000119
20
32.199999999999996
42
0.41421356237309509
10
49.900000000000091
20
31.699999999999999
10
64.400000000000048
20
31.699999999999999
42
0.41421356237309509
10
64.900000000000091
20
32.199999999999996
0
LWPOLYLINE
5
142
100
AcDbEntity
8
0
100
AcDbPolyline
90
8
70
1
43
0.0
10
-115.04124999999995
20
-3.8750000000000018
42
0.41421356237309509
10
-115.54124999999996
20
-4.375
10
-115.54124999999999
20
-8.5850000000000026
42
0.41421356237309509
10
-115.04124999999995
20
-9.0850000000000009
10
-113.37124999999993
20
-9.0850000000000009
42
0.41421356237307427
10
-112.87124999999996
20
-8.5850000000000026
10
-112.87124999999996
20
-4.375
42
0.41421356237307427
10
-113.37124999999993
20
-3.8750000000000018
0
LWPOLYLINE
5
143
100
AcDbEntity
8
0
100
AcDbPolyline
90
8
70
1
43
0.0
10
21.325000000000074
20
25.449999999999999
42
0.41421356237309509
10
20.825000000000102
20
24.950000000000003
10
20.825000000000102
20
13.149999999999999
42
0.41421356237309509
10
21.325000000000074
20
12.650000000000002
10
35.825000000000102
20
12.649999999999997
42
0.4142135623730534
10
36.325000000000003
20
13.149999999999999
10
36.325000000000003
20
24.950000000000003
42
0.41421356237309509
10
35.825000000000031
20
25.449999999999999
0
LWPOLYLINE
5
144
100
AcDbEntity
8
0
100
AcDbPolyline
90
8
70
1
43
0.0
10
-136.33749999999998
20
13.149999999999999
42
0.41421356237309509
10
-135.83749999999998
20
12.650000000000002
10
-121.33749999999999
20
12.649999999999997
42
0.41421356237309509
10
-120.83749999999998
20
13.149999999999999
10
-120.83749999999998
20
24.950000000000003
42
0.41421356237309509
10
-121.33749999999999
20
25.449999999999999
10
-135.83749999999998
20
25.449999999999999
42
0.41421356237309509
10
-136.33749999999998
20
24.950000000000003
0
LWPOLYLINE
5
145
100
AcDbEntity
8
0
100
AcDbPolyline
90
8
70
1
43
0.0
10
125.60000000000002
20
44
10
125.60000000000002
20
32.199999999999996
42
0.41421356237309509
10
126.10000000000007
20
31.699999999999999
10
140.60000000000002
20
31.699999999999999
42
0.41421356237309509
10
141.10000000000008
20
32.199999999999996
10
141.10000000000008
20
44
42
0.41421356237309509
10
140.60000000000002
20
44.5
10
126.10000000000007
20
44.5
42
0.41421356237309509
0
LWPOLYLINE
5
146
100
AcDbEntity
8
0
100
AcDbPolyline
90
8
70
1
43
0.0
10
-64.399999999999977
20
31.699999999999999
10
-49.899999999999949
20
31.699999999999999
42
0.41421356237309509
10
-49.399999999999977
20
32.199999999999996
10
-49.399999999999977
20
44
42
0.41421356237309509
10
-49.899999999999949
20
44.5
10
-64.399999999999977
20
44.5
42
0.41421356237309509
10
-64.899999999999977
20
44
10
-64.899999999999977
20
32.199999999999996
42
0.41421356237309509
0
LWPOLYLINE
5
147
100
AcDbEntity
8
0
100
AcDbPolyline
90
8
70
1
43
0.0
10
-133.45624999999998
20
6.3999999999999968
42
0.41421356237309509
10
-133.95624999999998
20
5.8999999999999986
10
-133.95624999999998
20
-5.8999999999999986
42
0.41421356237309509
10
-133.45624999999998
20
-6.3999999999999968
10
-118.95624999999995
20
-6.3999999999999968
42
0.41421356237309509
10
-118.45624999999995
20
-5.8999999999999986
10
-118.45624999999995
20
5.8999999999999986
42
0.41421356237309509
10
-118.95624999999995
20
6.3999999999999968
0
LWPOLYLINE
5
148
100
AcDbEntity
8
0
100
AcDbPolyline
90
8
70
1
43
0.0
10
-11.299999999999955
20
44
10
-11.299999999999928
20
32.199999999999996
42
-0.41421356237309509
10
-11.799999999999926
20
31.699999999999999
10
-26.299999999999955
20
31.700000000000024
42
-0.41421356237309509
10
-26.799999999999926
20
32.199999999999996
10
-26.799999999999955
20
44
42
-0.41421356237309509
10
-26.299999999999955
20
44.5
10
-11.799999999999926
20
44.499999999999972
42
-0.41421356237309509
0
LWPOLYLINE
5
149
100
AcDbEntity
8
0
100
AcDbPolyline
90
8
70
1
43
0.0
10
78.475000000000037
20
12.649999999999997
10
92.974999999999994
20
12.649999999999997
42
0.41421356237309509
10
93.475000000000037
20
13.149999999999999
10
93.474999999999966
20
24.950000000000003
42
0.41421356237309509
10
92.974999999999994
20
25.449999999999999
10
78.475000000000037
20
25.449999999999999
42
0.41421356237309509
10
77.975000000000065
20
24.950000000000003
10
77.975000000000065
20
13.149999999999999
42
0.41421356237309509
0
LWPOLYLINE
5
150
100
AcDbEntity
8
0
100
AcDbPolyline
90
8
70
1
43
0.0
10
7.2500000000000853
20
-44.5
42
0.41421356237309509
10
7.7500000000000568
20
-43.999999999999993
10
7.7500000000000568
20
-32.200000000000003
42
0.41421356237309509
10
7.2500000000000853
20
-31.70000000000001
10
-7.2499999999999432
20
-31.70000000000001
42
0.41421356237309509
10
-7.7499999999999147
20
-32.200000000000003
10
-7.7499999999999147
20
-43.999999999999993
42
0.41421356237309509
10
-7.2499999999999432
20
-44.5
0
LWPOLYLINE
5
151
100
AcDbEntity
8
0
100
AcDbPolyline
90
8
70
1
43
0.0
10
44.465000000000003
20
-41.974999999999987
10
46.135000000000019
20
-41.975000000000023
42
-0.41421356237309509
10
46.634999999999991
20
-42.474999999999994
10
46.635000000000005
20
-46.685000000000009
42
-0.41421356237309509
10
46.135000000000019
20
-47.184999999999995
10
44.465000000000003
20
-47.184999999999981
42
-0.41421356237309509
10
43.965000000000032
20
-46.685000000000009
10
43.964999999999996
20
-42.474999999999994
42
-0.41421356237309509
0
LWPOLYLINE
5
152
100
AcDbEntity
8
0
100
AcDbPolyline
90
8
70
1
43
0.0
10
-140.59999999999999
20
44.5
42
0.41421356237309509
10
-141.09999999999999
20
44
10
-141.09999999999999
20
32.199999999999996
42
0.41421356237309509
10
-140.59999999999999
20
31.699999999999999
10
-126.09999999999999
20
31.699999999999999
42
0.41421356237309509
10
-125.59999999999999
20
32.199999999999996
10
-125.59999999999999
20
44
42
0.41421356237309509
10
-126.09999999999999
20
44.5
0
LWPOLYLINE
5
153
100
AcDbEntity
8
0
100
AcDbPolyline
90
8
70
1
43
0.0
10
97.525000000000048
20
12.649999999999997
10
112.02500000000001
20
12.649999999999997
42
0.41421356237309509
10
112.52499999999998
20
13.149999999999999
10
112.52499999999998
20
24.950000000000003
42
0.41421356237309509
10
112.02500000000001
20
25.449999999999999
10
97.525000000000048
20
25.449999999999999
42
0.41421356237309509
10
97.025000000000006
20
24.950000000000003
10
97.025000000000006
20
13.149999999999999
42
0.41421356237309509
0
LWPOLYLINE
5
154
100
AcDbEntity
8
0
100
AcDbPolyline
90
8
70
1
43
0.0
10
-63.687499999999986
20
-13.150000000000004
10
-63.687499999999957
20
-24.950000000000003
42
-0.41421356237309509
10
-64.187499999999957
20
-25.449999999999999
10
-78.687499999999986
20
-25.45000000000001
42
-0.41421356237309509
10
-79.1875
20
-24.950000000000003
10
-79.187499999999986
20
-13.150000000000004
42
-0.41421356237309509
10
-78.687499999999986
20
-12.650000000000006
10
-64.187499999999957
20
-12.650000000000032
42
-0.41421356237309509
0
LWPOLYLINE
5
155
100
AcDbEntity
8
0
100
AcDbPolyline
90
8
70
1
43
0.0
10
-50.612499999999976
20
-5.8999999999999986
42
0.41421356237309509
10
-50.112499999999969
20
-6.3999999999999968
10
-35.612500000000011
20
-6.3999999999999968
42
0.41421356237309509
10
-35.112499999999969
20
-5.8999999999999986
10
-35.11250000000004
20
5.8999999999999986
42
0.41421356237309509
10
-35.612500000000011
20
6.3999999999999968
10
-50.112499999999969
20
6.3999999999999968
42
0.41421356237309509
10
-50.612499999999976
20
5.8999999999999986
0
LWPOLYLINE
5
156
100
AcDbEntity
8
0
100
AcDbPolyline
90
8
70
1
43
0.0
10
-40.587499999999963
20
-12.650000000000006
42
0.41421356237309509
10
-41.087499999999935
20
-13.150000000000004
10
-41.087500000000006
20
-24.950000000000003
42
0.41421356237309509
10
-40.587499999999963
20
-25.449999999999999
10
-26.087500000000006
20
-25.449999999999999
42
0.41421356237309509
10
-25.587500000000034
20
-24.950000000000003
10
-25.587499999999963
20
-13.150000000000004
42
0.41421356237309509
10
-26.087500000000006
20
-12.649999999999997
0
LWPOLYLINE
5
157
100
AcDbEntity
8
0
100
AcDbPolyline
90
8
70
1
43
0.0
10
-108.77874999999996
20
-23.425000000000004
10
-108.77874999999996
20
-27.635000000000005
42
0.41421356237309509
10
-108.27874999999999
20
-28.135000000000005
10
-106.60874999999997
20
-28.135000000000005
42
0.41421356237309509
10
-106.10874999999996
20
-27.635000000000005
10
-106.10874999999996
20
-23.425000000000004
42
0.41421356237309509
10
-106.60874999999997
20
-22.925000000000004
10
-108.27874999999999
20
-22.924999999999997
42
0.41421356237309509
0
LWPOLYLINE
5
158
100
AcDbEntity
8
0
100
AcDbPolyline
90
8
70
1
43
0.0
10
83.23750000000004
20
-6.3999999999999968
10
97.737500000000068
20
-6.3999999999999968
42
0.41421356237309509
10
98.23750000000004
20
-5.8999999999999986
10
98.23750000000004
20
5.8999999999999986
42
0.41421356237309509
10
97.737500000000068
20
6.3999999999999968
10
83.23750000000004
20
6.3999999999999968
42
0.41421356237309509
10
82.737500000000068
20
5.8999999999999986
10
82.737500000000068
20
-5.8999999999999986
42
0.41421356237309509
0
LWPOLYLINE
5
159
100
AcDbEntity
8
0
100
AcDbPolyline
90
8
70
1
43
0.0
10
134.6087500000001
20
-3.8750000000000018
42
0.41421356237309509
10
134.1087500000001
20
-4.375
10
134.10875000000004
20
-8.5850000000000026
42
0.41421356237309509
10
134.6087500000001
20
-9.0850000000000009
10
136.27875000000003
20
-9.0850000000000009
42
0.41421356237309509
10
136.77875
20
-8.5850000000000026
10
136.77875
20
-4.375
42
0.41421356237309509
10
136.27875000000003
20
-3.8750000000000018
0
LWPOLYLINE
5
160
100
AcDbEntity
8
0
100
AcDbPolyline
90
8
70
1
43
0.0
10
-59.637499999999974
20
-12.650000000000006
42
0.41421356237309509
10
-60.137499999999982
20
-13.150000000000004
10
-60.137499999999982
20
-24.950000000000003
42
0.41421356237309509
10
-59.637499999999974
20
-25.449999999999999
10
-45.137500000000017
20
-25.45000000000001
42
0.41421356237309509
10
-44.637500000000045
20
-24.950000000000003
10
-44.637499999999974
20
-13.150000000000004
42
0.41421356237309509
10
-45.137500000000017
20
-12.649999999999997
0
LWPOLYLINE
5
161
100
AcDbEntity
8
0
100
AcDbPolyline
90
8
70
1
43
0.0
10
-83.237499999999969
20
-25.449999999999999
42
0.41421356237309509
10
-82.737499999999955
20
-24.950000000000003
10
-82.737499999999955
20
-13.150000000000004
42
0.41421356237309509
10
-83.237499999999969
20
-12.650000000000006
10
-97.737499999999997
20
-12.650000000000006
42
0.41421356237309509
10
-98.237500000000011
20
-13.150000000000004
10
-98.237499999999969
20
-24.950000000000003
42
0.41421356237309509
10
-97.737499999999997
20
-25.45000000000001
0
LWPOLYLINE
5
162
100
AcDbEntity
8
0
100
AcDbPolyline
90
8
70
1
43
0.0
10
-128.69374999999997
20
-12.649999999999997
10
-114.19374999999995
20
-12.649999999999997
42
-0.41421356237309509
10
-113.69374999999994
20
-13.150000000000004
10
-113.69374999999994
20
-24.950000000000003
42
-0.41421356237309509
10
-114.19374999999995
20
-25.45000000000001
10
-128.69374999999997
20
-25.45000000000001
42
-0.41421356237309509
10
-129.19374999999999
20
-24.950000000000003
10
-129.19374999999999
20
-13.150000000000004
42
-0.41421356237309509
0
LWPOLYLINE
5
163
100
AcDbEntity
8
0
100
AcDbPolyline
90
8
70
1
43
0.0
10
-16.062500000000028
20
5.8999999999999986
42
0.41421356237309509
10
-16.5625
20
6.3999999999999968
10
-31.062499999999957
20
6.3999999999999968
42
0.41421356237309509
10
-31.5625
20
5.8999999999999986
10
-31.5625
20
-5.8999999999999986
42
0.41421356237309509
10
-31.062499999999957
20
-6.3999999999999968
10
-16.5625
20
-6.3999999999999968
42
0.41421356237309509
10
-16.062499999999957
20
-5.8999999999999986
0
LWPOLYLINE
5
164
100
AcDbEntity
8
0
100
AcDbPolyline
90
8
70
1
43
0.0
10
129.19375000000002
20
5.8999999999999986
10
129.19375000000005
20
-5.8999999999999986
42
-0.41421356237309509
10
128.69375000000005
20
-6.3999999999999968
10
114.19375000000002
20
-6.3999999999999702
42
-0.41421356237309509
10
113.69375000000005
20
-5.8999999999999986
10
113.69375000000002
20
5.8999999999999986
42
-0.41421356237309509
10
114.19375000000002
20
6.3999999999999968
10
128.69375000000005
20
6.3999999999999702
42
-0.41421356237309509
0
LWPOLYLINE
5
165
100
AcDbEntity
8
0
100
AcDbPolyline
90
8
70
1
43
0.0
10
78.687500000000057
20
-6.3999999999999968
42
0.41421356237309509
10
79.187500000000028
20
-5.8999999999999986
10
79.187500000000028
20
5.8999999999999986
42
0.41421356237309509
10
78.687500000000057
20
6.3999999999999968
10
64.187500000000028
20
6.3999999999999968
42
0.41421356237309509
10
63.687500000000057
20
5.8999999999999986
10
63.687500000000057
20
-5.8999999999999986
42
0.41421356237309509
10
64.187500000000028
20
-6.3999999999999968
0
LWPOLYLINE
5
166
100
AcDbEntity
8
0
100
AcDbPolyline
90
8
70
1
43
0.0
10
26.087500000000006
20
6.3999999999999968
10
40.587500000000034
20
6.3999999999999702
42
-0.41421356237309509
10
41.087500000000006
20
5.8999999999999986
10
41.087500000000034
20
-5.8999999999999986
42
-0.41421356237309509
10
40.587500000000034
20
-6.3999999999999968
10
26.087500000000006
20
-6.3999999999999702
42
-0.41421356237309509
10
25.587500000000034
20
-5.8999999999999986
10
25.587500000000006
20
5.8999999999999986
42
-0.41421356237309509
0
LWPOLYLINE
5
167
100
AcDbEntity
8
0
100
AcDbPolyline
90
8
70
1
43
0.0
10
106.60875000000004
20
-3.8750000000000018
10
108.27875000000006
20
-3.8750000000000284
42
-0.41421356237309509
10
108.77875000000003
20
-4.375
10
108.77875000000006
20
-8.5850000000000026
42
-0.41421356237309509
10
108.27875000000006
20
-9.0850000000000009
10
106.60875000000004
20
-9.0849999999999742
42
-0.41421356237309509
10
106.10875000000007
20
-8.5850000000000026
10
106.10875000000004
20
-4.375
42
-0.41421356237309509
0
LWPOLYLINE
5
168
100
AcDbEntity
8
0
100
AcDbPolyline
90
8
70
1
43
0.0
10
-12.012500000000017
20
6.3999999999999968
10
2.4875000000000114
20
6.3999999999999702
42
-0.41421356237309509
10
2.9874999999999829
20
5.8999999999999986
10
2.9875000000000096
20
-5.8999999999999986
42
-0.41421356237309509
10
2.4875000000000114
20
-6.3999999999999968
10
-12.012500000000017
20
-6.3999999999999702
42
-0.41421356237309509
10
-12.512499999999989
20
-5.8999999999999986
10
-12.512500000000015
20
5.8999999999999986
42
-0.41421356237309509
0
LWPOLYLINE
5
169
100
AcDbEntity
8
0
100
AcDbPolyline
90
8
70
1
43
0.0
10
45.137500000000017
20
-6.3999999999999968
10
59.637500000000045
20
-6.3999999999999968
42
0.41421356237309509
10
60.137500000000017
20
-5.8999999999999986
10
60.137500000000017
20
5.8999999999999986
42
0.41421356237309509
10
59.637500000000045
20
6.3999999999999968
10
45.137500000000017
20
6.3999999999999968
42
0.41421356237309509
10
44.637500000000045
20
5.8999999999999986
10
44.637500000000045
20
-5.8999999999999986
42
0.41421356237309509
0
LWPOLYLINE
5
170
100
AcDbEntity
8
0
100
AcDbPolyline
90
8
70
1
43
0.0
10
22.037499999999994
20
5.8999999999999986
42
0.41421356237309509
10
21.537500000000023
20
6.3999999999999968
10
7.0374999999999943
20
6.3999999999999968
42
0.41421356237309509
10
6.5375000000000227
20
5.8999999999999986
10
6.5375000000000227
20
-5.8999999999999986
42
0.41421356237309509
10
7.0374999999999943
20
-6.3999999999999968
10
21.537500000000023
20
-6.3999999999999968
42
0.41421356237309509
10
22.037499999999994
20
-5.8999999999999986
0
LWPOLYLINE
5
171
100
AcDbEntity
8
0
100
AcDbPolyline
90
8
70
1
43
0.0
10
-134.10874999999999
20
-23.425000000000004
10
-134.10874999999999
20
-27.635000000000005
42
-0.41421356237309509
10
-134.60874999999999
20
-28.135000000000005
10
-136.27874999999995
20
-28.135000000000012
42
-0.41421356237309509
10
-136.77874999999997
20
-27.635000000000005
10
-136.77874999999997
20
-23.425000000000004
42
-0.41421356237309509
10
-136.27874999999995
20
-22.925000000000004
10
-134.60874999999999
20
-22.924999999999997
42
-0.41421356237309509
0
LWPOLYLINE
5
172
100
AcDbEntity
8
0
100
AcDbPolyline
90
36
70
1
43
0.0
10
142.87500000000009
20
45.375000000000057
10
142.87500000000014
20
-45.374999999999972
42
-0.41421356237309509
10
140.62500000000006
20
-47.625000000000036
10
-140.625
20
-47.624999999999986
42
-0.41421356237309509
10
-142.875
20
-45.374999999999972
10
-142.875
20
45.375000000000057
42
-0.41421356237309509
10
-140.625
20
47.625000000000071
10
-134.32500000000002
20
47.625000000000036
42
-0.41421356237309509
10
-133.82499999999999
20
47.125000000000028
10
-133.82500000000005
20
46.875000000000043
42
0.41421356237309509
10
-133.32500000000005
20
46.375000000000071
10
-131.32499999999999
20
46.375000000000071
42
0.41421356237309509
10
-130.82500000000005
20
46.875000000000043
42
-0.41421356237309509
10
-130.32500000000002
20
47.37500000000005
10
-117.32500000000002
20
47.375000000000014
42
-0.41421356237309509
10
-116.82500000000005
20
46.875000000000043
42
0.41421356237309509
10
-116.325
20
46.375000000000071
10
-114.32500000000005
20
46.375000000000071
42
0.41421356237309509
10
-113.825
20
46.875000000000043
10
-113.82500000000007
20
47.125000000000028
42
-0.41421356237309509
10
-113.32500000000003
20
47.625000000000071
10
113.32500000000003
20
47.625
42
-0.41421356237309509
10
113.825
20
47.125000000000028
10
113.825
20
46.875000000000043
42
0.41421356237309509
10
114.32500000000005
20
46.375000000000036
10
116.325
20
46.375000000000036
42
0.41421356237309509
10
116.82500000000002
20
46.875000000000043
42
-0.41421356237309509
10
117.32500000000002
20
47.37500000000005
10
130.32500000000005
20
47.375000000000014
42
-0.41421356237309509
10
130.82500000000005
20
46.875000000000043
42
0.41421356237309509
10
131.32499999999999
20
46.375000000000071
10
133.32500000000005
20
46.375000000000071
42
0.41421356237309509
10
133.82499999999999
20
46.875000000000043
10
133.82499999999999
20
47.125000000000028
42
-0.41421356237309509
10
134.32500000000005
20
47.625000000000071
10
140.62500000000006
20
47.625000000000071
42
-0.41421356237309509
0
LWPOLYLINE
5
173
100
AcDbEntity
8
0
100
AcDbPolyline
90
8
70
1
43
0.0
10
-43.965000000000032
20
-29.514999999999993
42
0.41421356237309509
10
-44.465000000000003
20
-29.014999999999986
10
-46.135000000000019
20
-29.014999999999986
42
0.41421356237309509
10
-46.634999999999991
20
-29.514999999999993
10
-46.634999999999991
20
-33.725000000000009
42
0.41421356237309509
10
-46.135000000000019
20
-34.225000000000009
10
-44.465000000000003
20
-34.225000000000009
42
0.41421356237309509
10
-43.965000000000032
20
-33.725000000000009
0
LWPOLYLINE
5
174
100
AcDbEntity
8
0
100
AcDbPolyline
90
8
70
1
43
0.0
10
44.465000000000003
20
-29.015000000000004
10
46.135000000000019
20
-29.015000000000022
42
-0.41421356237309509
10
46.634999999999991
20
-29.514999999999993
10
46.635000000000026
20
-33.725000000000009
42
-0.41421356237309509
10
46.135000000000019
20
-34.225000000000009
10
44.465000000000003
20
-34.22499999999998
42
-0.41421356237309509
10
43.965000000000032
20
-33.725000000000009
10
43.965000000000018
20
-29.514999999999993
42
-0.41421356237309509
0
CIRCLE
5
175
100
AcDbEntity
8
0
100
AcDbCircle
10
-37.999999999999915
20
-38.100000000000001
30
0
40
3.1499999999999999
210
0
220
0
230
1
0
LWPOLYLINE
5
176
100
AcDbEntity
8
0
100
AcDbPolyline
90
4
70
1
43
0.0
10
-30.749999999999918
20
-39.300000000000004
10
-33.14999999999992
20
-39.300000000000004
10
-33.14999999999992
20
-36.899999999999999
10
-30.749999999999918
20
-36.899999999999999
0
LWPOLYLINE
5
177
100
AcDbEntity
8
0
100
AcDbPolyline
90
4
70
1
43
0.0
10
-42.849999999999909
20
-39.300000000000004
10
-42.849999999999909
20
-36.899999999999999
10
-45.249999999999915
20
-36.899999999999999
10
-45.249999999999915
20
-39.300000000000004
0
ENDSEC
0
SECTION
2
OBJECTS
0
DICTIONARY
5
C
100
AcDbDictionary
3
ACAD_GROUP
350
D
3
ACAD_MLINESTYLE
350
17
0
DICTIONARY
5
D
100
AcDbDictionary
0
DICTIONARY
5
1A
330
C
100
AcDbDictionary
0
DICTIONARY
5
17
100
AcDbDictionary
0
ENDSEC
0
EOF
