0
SECTION
2
HEADER
9
$INSUNITS
70
4
9
$ACADVER
1
AC1014
9
$HANDSEED
5
FFFF
0
ENDSEC
0
SECTION
2
TABLES
0
TABLE
2
VPORT
5
8
100
AcDbSymbolTable
0
ENDTAB
0
TABLE
2
LTYPE
5
5
100
AcDbSymbolTable
0
LTYPE
5
14
100
AcDbSymbolTableRecord
100
AcDbLinetypeTableRecord
2
BYBLOCK
70
0
0
LTYPE
5
15
100
AcDbSymbolTableRecord
100
AcDbLinetypeTableRecord
2
BYLAYER
70
0
0
ENDTAB
0
TABLE
2
LAYER
5
2
100
AcDbSymbolTable
70
2
0
LAYER
5
50
100
AcDbSymbolTableRecord
100
AcDbLayerTableRecord
2
0
70
0
6
CONTINUOUS
0
ENDTAB
0
TABLE
2
STYLE
5
3
100
AcDbSymbolTable
70
1
0
STYLE
5
11
100
AcDbSymbolTableRecord
100
AcDbTextStyleTableRecord
2
STANDARD
70
0
0
ENDTAB
0
TABLE
2
VIEW
5
6
100
AcDbSymbolTable
70
0
0
ENDTAB
0
TABLE
2
UCS
5
7
100
AcDbSymbolTable
70
0
0
ENDTAB
0
TABLE
2
APPID
5
9
100
AcDbSymbolTable
70
2
0
APPID
5
12
100
AcDbSymbolTableRecord
100
AcDbRegAppTableRecord
2
ACAD
70
0
0
ENDTAB
0
TABLE
2
DIMSTYLE
5
A
100
AcDbSymbolTable
70
1
0
ENDTAB
0
TABLE
2
BLOCK_RECORD
5
1
100
AcDbSymbolTable
70
1
0
BLOCK_RECORD
5
1F
100
AcDbSymbolTableRecord
100
AcDbBlockTableRecord
2
*MODEL_SPACE
0
BLOCK_RECORD
5
1B
100
AcDbSymbolTableRecord
100
AcDbBlockTableRecord
2
*PAPER_SPACE
0
ENDTAB
0
ENDSEC
0
SECTION
2
BLOCKS
0
BLOCK
5
20
100
AcDbEntity
100
AcDbBlockBegin
2
*MODEL_SPACE
0
ENDBLK
5
21
100
AcDbEntity
100
AcDbBlockEnd
0
BLOCK
5
1C
100
AcDbEntity
100
AcDbBlockBegin
2
*PAPER_SPACE
0
ENDBLK
5
1D
100
AcDbEntity
100
AcDbBlockEnd
0
ENDSEC
0
SECTION
2
ENTITIES
0
LWPOLYLINE
5
100
100
AcDbEntity
8
0
100
AcDbPolyline
90
8
70
1
43
0.0
10
-133.95625000000007
20
5.8999999999999986
10
-133.95625000000007
20
-5.8999999999999986
42
0.41421356237309509
10
-133.45625000000007
20
-6.4000000000000057
10
-118.95625000000004
20
-6.4000000000000057
42
0.41421356237309509
10
-118.45625000000004
20
-5.8999999999999986
10
-118.45625000000005
20
5.8999999999999986
42
0.41421356237309509
10
-118.95625000000004
20
6.3999999999999879
10
-133.45625000000007
20
6.3999999999999879
42
0.41421356237309509
0
LWPOLYLINE
5
101
100
AcDbEntity
8
0
100
AcDbPolyline
90
8
70
1
43
0.0
10
-107.26250000000005
20
6.4000000000000057
42
0.41421356237309509
10
-107.76250000000005
20
5.8999999999999986
10
-107.76250000000005
20
-5.8999999999999986
42
0.41421356237309509
10
-107.26250000000005
20
-6.4000000000000057
10
-92.762500000000045
20
-6.4000000000000057
42
0.41421356237309509
10
-92.262500000000045
20
-5.8999999999999986
10
-92.262500000000045
20
5.8999999999999986
42
0.41421356237309509
10
-92.762500000000045
20
6.3999999999999879
0
LWPOLYLINE
5
102
100
AcDbEntity
8
0
100
AcDbPolyline
90
8
70
1
43
0.0
10
-112.87125000000003
20
-4.375
42
0.41421356237309509
10
-113.37125000000003
20
-3.8749999999999929
10
-115.04125000000003
20
-3.8750000000000107
42
0.41421356237309509
10
-115.54125000000005
20
-4.375
10
-115.54125000000005
20
-8.5849999999999937
42
0.41421356237310542
10
-115.04125000000003
20
-9.0850000000000186
10
-113.37125000000003
20
-9.0850000000000186
42
0.41421356237309509
10
-112.87125000000003
20
-8.5850000000000115
0
LWPOLYLINE
5
103
100
AcDbEntity
8
0
100
AcDbPolyline
90
8
70
1
43
0.0
10
-88.212500000000048
20
6.3999999999999879
10
-73.712500000000034
20
6.3999999999999879
42
-0.41421356237309509
10
-73.212500000000048
20
5.8999999999999986
10
-73.212500000000034
20
-5.8999999999999986
42
-0.41421356237309509
10
-73.712500000000034
20
-6.4000000000000057
10
-88.212500000000048
20
-6.4000000000000057
42
-0.41421356237309509
10
-88.712500000000048
20
-5.8999999999999986
10
-88.712500000000034
20
5.8999999999999986
42
-0.41421356237309509
0
LWPOLYLINE
5
104
100
AcDbEntity
8
0
100
AcDbPolyline
90
8
70
1
43
0.0
10
-139.04125000000005
20
-3.8750000000000107
10
-137.37125000000003
20
-3.8750000000000107
42
-0.41421356237309509
10
-136.87125000000006
20
-4.375
10
-136.87125000000003
20
-8.5849999999999937
42
-0.41421356237310542
10
-137.37125000000003
20
-9.0850000000000186
10
-139.04125000000005
20
-9.0850000000000186
42
-0.41421356237310542
10
-139.54125000000005
20
-8.5849999999999937
10
-139.54125000000002
20
-4.375
42
-0.41421356237309509
0
LWPOLYLINE
5
105
100
AcDbEntity
8
0
100
AcDbPolyline
90
8
70
1
43
0.0
10
78.474999999999966
20
12.649999999999988
10
92.974999999999966
20
12.649999999999988
42
0.41421356237309509
10
93.474999999999966
20
13.149999999999995
10
93.474999999999966
20
24.949999999999992
42
0.41421356237309509
10
92.974999999999966
20
25.449999999999982
10
78.474999999999966
20
25.449999999999982
42
0.41421356237309509
10
77.974999999999966
20
24.949999999999992
10
77.974999999999966
20
13.149999999999995
42
0.41421356237309509
0
LWPOLYLINE
5
106
100
AcDbEntity
8
0
100
AcDbPolyline
90
8
70
1
43
0.0
10
73.924999999999955
20
12.649999999999988
42
0.41421356237309509
10
74.424999999999955
20
13.149999999999995
10
74.424999999999955
20
24.949999999999992
42
0.41421356237309509
10
73.924999999999955
20
25.449999999999999
10
59.424999999999955
20
25.449999999999982
42
0.41421356237309509
10
58.924999999999947
20
24.949999999999992
10
58.924999999999947
20
13.149999999999995
42
0.41421356237309509
10
59.424999999999955
20
12.649999999999988
0
LWPOLYLINE
5
107
100
AcDbEntity
8
0
100
AcDbPolyline
90
8
70
1
43
0.0
10
121.33749999999999
20
12.649999999999988
10
135.83749999999995
20
12.649999999999988
42
0.41421356237309509
10
136.33749999999998
20
13.149999999999995
10
136.33749999999992
20
24.949999999999992
42
0.41421356237309509
10
135.83749999999995
20
25.449999999999982
10
121.33749999999999
20
25.449999999999982
42
0.41421356237309509
10
120.83750000000002
20
24.949999999999992
10
120.83750000000002
20
13.149999999999995
42
0.41421356237309509
0
LWPOLYLINE
5
108
100
AcDbEntity
8
0
100
AcDbPolyline
90
8
70
1
43
0.0
10
97.524999999999977
20
12.649999999999988
10
112.02499999999998
20
12.649999999999988
42
0.41421356237309509
10
112.52499999999998
20
13.149999999999995
10
112.52499999999998
20
24.949999999999992
42
0.41421356237309509
10
112.02499999999998
20
25.449999999999999
10
97.524999999999977
20
25.449999999999982
42
0.41421356237309509
10
97.024999999999977
20
24.949999999999992
10
97.024999999999977
20
13.149999999999995
42
0.41421356237309509
0
LWPOLYLINE
5
109
100
AcDbEntity
8
0
100
AcDbPolyline
90
8
70
1
43
0.0
10
-12.012500000000053
20
6.3999999999999879
10
2.4874999999999403
20
6.4000000000000057
42
-0.41421356237309509
10
2.9874999999999474
20
5.8999999999999986
10
2.9874999999999474
20
-5.8999999999999986
42
-0.41421356237309509
10
2.4874999999999403
20
-6.4000000000000057
10
-12.012500000000053
20
-6.4000000000000057
42
-0.41421356237309509
10
-12.51250000000006
20
-5.8999999999999986
10
-12.512500000000042
20
5.8999999999999986
42
-0.41421356237309509
0
LWPOLYLINE
5
110
100
AcDbEntity
8
0
100
AcDbPolyline
90
8
70
1
43
0.0
10
45.137499999999946
20
6.4000000000000057
42
0.41421356237309509
10
44.637499999999939
20
5.8999999999999986
10
44.637499999999939
20
-5.8999999999999986
42
0.41421356237309509
10
45.137499999999946
20
-6.4000000000000057
10
59.637499999999974
20
-6.4000000000000057
42
0.41421356237309509
10
60.137499999999982
20
-5.8999999999999986
10
60.137499999999982
20
5.8999999999999986
42
0.41421356237309509
10
59.637499999999974
20
6.3999999999999879
0
LWPOLYLINE
5
111
100
AcDbEntity
8
0
100
AcDbPolyline
90
8
70
1
43
0.0
10
64.187499999999957
20
6.4000000000000057
42
0.41421356237309509
10
63.68749999999995
20
5.8999999999999986
10
63.68749999999995
20
-5.8999999999999986
42
0.41421356237309509
10
64.187499999999957
20
-6.4000000000000057
10
78.687499999999943
20
-6.4000000000000057
42
0.41421356237309509
10
79.187499999999957
20
-5.8999999999999986
10
79.187499999999957
20
5.8999999999999986
42
0.41421356237309509
10
78.687499999999943
20
6.4000000000000057
0
LWPOLYLINE
5
112
100
AcDbEntity
8
0
100
AcDbPolyline
90
8
70
1
43
0.0
10
-35.612500000000047
20
-6.4000000000000057
42
0.41421356237309509
10
-35.11250000000004
20
-5.8999999999999986
10
-35.11250000000004
20
5.8999999999999986
42
0.41421356237309509
10
-35.612500000000047
20
6.4000000000000057
10
-50.11250000000004
20
6.4000000000000057
42
0.41421356237309509
10
-50.612500000000047
20
5.8999999999999986
10
-50.612500000000047
20
-5.8999999999999986
42
0.41421356237309509
10
-50.11250000000004
20
-6.4000000000000057
0
LWPOLYLINE
5
113
100
AcDbEntity
8
0
100
AcDbPolyline
90
8
70
1
43
0.0
10
40.587499999999963
20
-6.4000000000000057
42
0.41421356237309509
10
41.08749999999997
20
-5.8999999999999986
10
41.08749999999997
20
5.8999999999999986
42
0.41421356237309509
10
40.587499999999963
20
6.3999999999999879
10
26.08749999999997
20
6.4000000000000057
42
0.41421356237309509
10
25.587499999999963
20
5.8999999999999986
10
25.587499999999963
20
-5.8999999999999986
42
0.41421356237309509
10
26.08749999999997
20
-6.4000000000000057
0
LWPOLYLINE
5
114
100
AcDbEntity
8
0
100
AcDbPolyline
90
8
70
1
43
0.0
10
-16.062500000000028
20
5.8999999999999986
10
-16.062500000000028
20
-5.8999999999999986
42
-0.41421356237309509
10
-16.562500000000036
20
-6.4000000000000057
10
-31.062500000000028
20
-6.4000000000000057
42
-0.41421356237309509
10
-31.562500000000036
20
-5.8999999999999986
10
-31.562500000000018
20
5.8999999999999986
42
-0.41421356237309509
10
-31.062500000000028
20
6.3999999999999879
10
-16.562500000000036
20
6.4000000000000057
42
-0.41421356237309509
0
LWPOLYLINE
5
115
100
AcDbEntity
8
0
100
AcDbPolyline
90
8
70
1
43
0.0
10
7.0374999999999588
20
6.3999999999999879
10
21.537499999999952
20
6.4000000000000057
42
-0.41421356237309509
10
22.037499999999959
20
5.8999999999999986
10
22.037499999999959
20
-5.8999999999999986
42
-0.41421356237309509
10
21.537499999999952
20
-6.4000000000000057
10
7.0374999999999588
20
-6.4000000000000057
42
-0.41421356237309509
10
6.5374999999999517
20
-5.8999999999999986
10
6.5374999999999694
20
5.8999999999999986
42
-0.41421356237309509
0
LWPOLYLINE
5
116
100
AcDbEntity
8
0
100
AcDbPolyline
90
8
70
1
43
0.0
10
83.237499999999969
20
6.3999999999999879
10
97.737499999999955
20
6.4000000000000057
42
-0.41421356237309509
10
98.237499999999969
20
5.8999999999999986
10
98.237499999999969
20
-5.8999999999999986
42
-0.41421356237309509
10
97.737499999999955
20
-6.4000000000000057
10
83.237499999999969
20
-6.4000000000000057
42
-0.41421356237309509
10
82.737499999999955
20
-5.8999999999999986
10
82.737499999999983
20
5.8999999999999986
42
-0.41421356237309509
0
LWPOLYLINE
5
117
100
AcDbEntity
8
0
100
AcDbPolyline
90
8
70
1
43
0.0
10
-69.662500000000023
20
5.8999999999999986
10
-69.662500000000023
20
-5.8999999999999986
42
0.41421356237309509
10
-69.162500000000037
20
-6.4000000000000057
10
-54.662500000000023
20
-6.4000000000000057
42
0.41421356237309509
10
-54.162500000000016
20
-5.8999999999999986
10
-54.162500000000016
20
5.8999999999999986
42
0.41421356237309509
10
-54.662500000000023
20
6.3999999999999879
10
-69.162500000000037
20
6.3999999999999879
42
0.41421356237309509
0
LWPOLYLINE
5
118
100
AcDbEntity
8
0
100
AcDbPolyline
90
8
70
1
43
0.0
10
136.77874999999995
20
-4.375
42
0.41421356237309509
10
136.27874999999995
20
-3.8749999999999929
10
134.60875000000001
20
-3.8750000000000107
42
0.41421356237309509
10
134.10874999999999
20
-4.375
10
134.10875000000004
20
-8.5850000000000115
42
0.41421356237309509
10
134.60875000000001
20
-9.0850000000000186
10
136.27874999999995
20
-9.0850000000000009
42
0.41421356237310542
10
136.77874999999995
20
-8.5849999999999937
0
LWPOLYLINE
5
119
100
AcDbEntity
8
0
100
AcDbPolyline
90
8
70
1
43
0.0
10
-106.55000000000004
20
43.999999999999993
10
-106.55000000000004
20
32.199999999999989
42
-0.41421356237309509
10
-107.05000000000005
20
31.699999999999982
10
-121.55000000000004
20
31.699999999999982
42
-0.41421356237309509
10
-122.05000000000005
20
32.199999999999989
10
-122.05000000000005
20
43.999999999999993
42
-0.41421356237309509
10
-121.55000000000004
20
44.499999999999993
10
-107.05000000000005
20
44.5
42
-0.41421356237309509
0
LWPOLYLINE
5
120
100
AcDbEntity
8
0
100
AcDbPolyline
90
8
70
1
43
0.0
10
-128.69375000000005
20
-12.650000000000006
42
0.41421356237309509
10
-129.19375000000005
20
-13.150000000000013
10
-129.19375000000005
20
-24.95000000000001
42
0.41421356237309509
10
-128.69375000000005
20
-25.450000000000017
10
-114.19375000000004
20
-25.450000000000017
42
0.41421356237309509
10
-113.69375000000005
20
-24.95000000000001
10
-113.69375000000004
20
-13.150000000000013
42
0.41421356237309509
10
-114.19375000000004
20
-12.650000000000006
0
LWPOLYLINE
5
121
100
AcDbEntity
8
0
100
AcDbPolyline
90
8
70
1
43
0.0
10
-97.737500000000054
20
-25.450000000000017
10
-83.23750000000004
20
-25.450000000000017
42
0.41421356237309509
10
-82.73750000000004
20
-24.95000000000001
10
-82.73750000000004
20
-13.150000000000013
42
0.41421356237309509
10
-83.23750000000004
20
-12.650000000000006
10
-97.737500000000054
20
-12.650000000000006
42
0.41421356237309509
10
-98.237500000000054
20
-13.150000000000013
10
-98.237500000000054
20
-24.95000000000001
42
0.41421356237309509
0
LWPOLYLINE
5
122
100
AcDbEntity
8
0
100
AcDbPolyline
90
8
70
1
43
0.0
10
-106.60875000000004
20
-28.135000000000012
42
0.41421356237309509
10
-106.10875000000004
20
-27.635000000000005
10
-106.10875000000004
20
-23.425000000000011
42
0.41421356237309509
10
-106.60875000000004
20
-22.925000000000004
10
-108.27875000000004
20
-22.925000000000004
42
0.41421356237309509
10
-108.77875000000004
20
-23.425000000000011
10
-108.77875000000004
20
-27.635000000000005
42
0.41421356237309509
10
-108.27875000000004
20
-28.135000000000012
0
LWPOLYLINE
5
123
100
AcDbEntity
8
0
100
AcDbPolyline
90
8
70
1
43
0.0
10
-68.450000000000045
20
43.999999999999993
42
0.41421356237309509
10
-68.950000000000045
20
44.499999999999993
10
-83.450000000000045
20
44.499999999999993
42
0.41421356237309509
10
-83.950000000000045
20
43.999999999999993
10
-83.950000000000045
20
32.199999999999989
42
0.41421356237309509
10
-83.450000000000045
20
31.699999999999982
10
-68.950000000000045
20
31.699999999999982
42
0.41421356237309509
10
-68.45000000000006
20
32.199999999999989
0
LWPOLYLINE
5
124
100
AcDbEntity
8
0
100
AcDbPolyline
90
8
70
1
43
0.0
10
-136.27875000000003
20
-28.135000000000012
10
-134.60875000000004
20
-28.135000000000012
42
0.41421356237309509
10
-134.10875000000004
20
-27.635000000000005
10
-134.10875000000004
20
-23.425000000000011
42
0.41421356237309509
10
-134.60875000000004
20
-22.925000000000004
10
-136.27875000000003
20
-22.925000000000004
42
0.41421356237309509
10
-136.77875000000003
20
-23.425000000000011
10
-136.77875000000003
20
-27.635000000000005
42
0.41421356237309509
0
LWPOLYLINE
5
125
100
AcDbEntity
8
0
100
AcDbPolyline
90
8
70
1
43
0.0
10
-102.50000000000003
20
31.699999999999982
10
-88.000000000000043
20
31.699999999999982
42
0.41421356237309509
10
-87.500000000000028
20
32.199999999999989
10
-87.500000000000028
20
43.999999999999993
42
0.41421356237309509
10
-88.000000000000043
20
44.499999999999993
10
-102.50000000000003
20
44.499999999999993
42
0.41421356237309509
10
-103.00000000000004
20
43.999999999999993
10
-103.00000000000004
20
32.199999999999989
42
0.41421356237309509
0
LWPOLYLINE
5
126
100
AcDbEntity
8
0
100
AcDbPolyline
90
8
70
1
43
0.0
10
129.19374999999997
20
5.8999999999999986
42
0.41421356237309509
10
128.69374999999997
20
6.4000000000000057
10
114.19374999999995
20
6.3999999999999879
42
0.41421356237309509
10
113.69374999999994
20
5.8999999999999986
10
113.69374999999998
20
-5.8999999999999986
42
0.41421356237309509
10
114.19374999999995
20
-6.4000000000000057
10
128.69374999999997
20
-6.4000000000000057
42
0.41421356237309509
10
129.19374999999997
20
-5.8999999999999986
0
LWPOLYLINE
5
127
100
AcDbEntity
8
0
100
AcDbPolyline
90
8
70
1
43
0.0
10
108.27874999999995
20
-9.0850000000000186
42
0.41421356237309509
10
108.77874999999996
20
-8.5850000000000115
10
108.77874999999996
20
-4.375
42
0.41421356237309509
10
108.27874999999995
20
-3.8749999999999929
10
106.60874999999997
20
-3.8749999999999929
42
0.41421356237309509
10
106.10875
20
-4.375
10
106.10874999999996
20
-8.5850000000000115
42
0.41421356237309509
10
106.60874999999997
20
-9.0850000000000186
0
LWPOLYLINE
5
128
100
AcDbEntity
8
0
100
AcDbPolyline
90
8
70
1
43
0.0
10
-60.137500000000053
20
-13.150000000000013
10
-60.137500000000053
20
-24.95000000000001
42
0.41421356237309509
10
-59.637500000000045
20
-25.450000000000017
10
-45.137500000000053
20
-25.450000000000017
42
0.41421356237309509
10
-44.637500000000045
20
-24.95000000000001
10
-44.637500000000045
20
-13.150000000000013
42
0.41421356237309509
10
-45.137500000000053
20
-12.650000000000006
10
-59.637500000000045
20
-12.650000000000006
42
0.41421356237309509
0
LWPOLYLINE
5
129
100
AcDbEntity
8
0
100
AcDbPolyline
90
8
70
1
43
0.0
10
-40.587500000000034
20
-12.650000000000006
10
-26.087500000000041
20
-12.650000000000006
42
-0.41421356237309509
10
-25.587500000000034
20
-13.150000000000013
10
-25.587500000000034
20
-24.95000000000001
42
-0.41421356237309509
10
-26.087500000000041
20
-25.450000000000017
10
-40.587500000000034
20
-25.450000000000017
42
-0.41421356237309509
10
-41.087500000000041
20
-24.95000000000001
10
-41.087500000000041
20
-13.150000000000013
42
-0.41421356237309509
0
LWPOLYLINE
5
130
100
AcDbEntity
8
0
100
AcDbPolyline
90
8
70
1
43
0.0
10
-140.60000000000005
20
44.499999999999993
10
-126.10000000000005
20
44.499999999999986
42
-0.41421356237309509
10
-125.60000000000005
20
43.999999999999993
10
-125.60000000000004
20
32.199999999999989
42
-0.41421356237309509
10
-126.10000000000005
20
31.699999999999982
10
-140.60000000000005
20
31.699999999999999
42
-0.41421356237309509
10
-141.10000000000005
20
32.199999999999989
10
-141.10000000000008
20
43.999999999999993
42
-0.41421356237309509
0
LWPOLYLINE
5
131
100
AcDbEntity
8
0
100
AcDbPolyline
90
8
70
1
43
0.0
10
-78.687500000000043
20
-12.650000000000006
42
0.41421356237309509
10
-79.187500000000043
20
-13.150000000000013
10
-79.187500000000028
20
-24.95000000000001
42
0.41421356237309509
10
-78.687500000000043
20
-25.450000000000017
10
-64.187500000000028
20
-25.450000000000017
42
0.41421356237309509
10
-63.687500000000043
20
-24.95000000000001
10
-63.687500000000043
20
-13.150000000000013
42
0.41421356237309509
10
-64.187500000000028
20
-12.650000000000006
0
LWPOLYLINE
5
132
100
AcDbEntity
8
0
100
AcDbPolyline
90
8
70
1
43
0.0
10
-22.03750000000003
20
-13.150000000000013
10
-22.03750000000003
20
-24.95000000000001
42
0.41421356237309509
10
-21.537500000000023
20
-25.450000000000017
10
-7.0375000000000298
20
-25.450000000000017
42
0.41421356237309509
10
-6.5375000000000227
20
-24.95000000000001
10
-6.5375000000000227
20
-13.150000000000013
42
0.41421356237309509
10
-7.0375000000000298
20
-12.650000000000006
10
-21.537500000000023
20
-12.650000000000006
42
0.41421356237309509
0
LWPOLYLINE
5
133
100
AcDbEntity
8
0
100
AcDbPolyline
90
8
70
1
43
0.0
10
35.61249999999994
20
-12.650000000000006
10
50.112499999999969
20
-12.650000000000041
42
-0.41421356237309509
10
50.61249999999994
20
-13.150000000000013
10
50.612499999999976
20
-24.95000000000001
42
-0.41421356237309509
10
50.112499999999969
20
-25.450000000000017
10
35.61249999999994
20
-25.450000000000017
42
-0.41421356237309509
10
35.112499999999933
20
-24.95000000000001
10
35.112499999999933
20
-13.150000000000013
42
-0.41421356237309509
0
LWPOLYLINE
5
134
100
AcDbEntity
8
0
100
AcDbPolyline
90
8
70
1
43
0.0
10
108.93124999999998
20
-13.150000000000013
10
108.93124999999998
20
-24.95000000000001
42
0.41421356237309509
10
109.43124999999998
20
-25.450000000000017
10
123.93124999999998
20
-25.450000000000017
42
0.41421356237309509
10
124.43124999999995
20
-24.95000000000001
10
124.43124999999995
20
-13.150000000000013
42
0.41421356237309509
10
123.93124999999998
20
-12.650000000000006
10
109.43124999999998
20
-12.650000000000006
42
0.41421356237309509
0
LWPOLYLINE
5
135
100
AcDbEntity
8
0
100
AcDbPolyline
90
8
70
1
43
0.0
10
135.84624999999994
20
-23.425000000000011
10
135.84624999999994
20
-27.635000000000005
42
0.41421356237309509
10
136.34624999999994
20
-28.135000000000012
10
138.01624999999996
20
-28.135000000000012
42
0.41421356237309509
10
138.51624999999999
20
-27.635000000000005
10
138.5162499999999
20
-23.425000000000011
42
0.41421356237309509
10
138.01624999999996
20
-22.925000000000004
10
136.34624999999994
20
-22.925000000000004
42
0.41421356237309509
0
LWPOLYLINE
5
136
100
AcDbEntity
8
0
100
AcDbPolyline
90
8
70
1
43
0.0
10
68.449999999999989
20
-43.999999999999986
42
0.41421356237309509
10
68.949999999999989
20
-44.499999999999993
10
83.449999999999989
20
-44.500000000000028
42
0.41421356237307427
10
83.949999999999989
20
-44.000000000000021
10
83.949999999999989
20
-32.200000000000024
42
0.41421356237309509
10
83.449999999999989
20
-31.700000000000017
10
68.949999999999989
20
-31.700000000000017
42
0.41421356237309509
10
68.449999999999989
20
-32.200000000000024
0
LWPOLYLINE
5
137
100
AcDbEntity
8
0
100
AcDbPolyline
90
8
70
1
43
0.0
10
-2.987500000000054
20
-13.150000000000013
10
-2.987500000000054
20
-24.95000000000001
42
0.41421356237309509
10
-2.4875000000000469
20
-25.450000000000017
10
12.012499999999946
20
-25.450000000000017
42
0.41421356237309509
10
12.512499999999953
20
-24.95000000000001
10
12.512499999999953
20
-13.150000000000013
42
0.41421356237309509
10
12.012499999999946
20
-12.650000000000006
10
-2.4875000000000469
20
-12.650000000000006
42
0.41421356237309509
0
LWPOLYLINE
5
138
100
AcDbEntity
8
0
100
AcDbPolyline
90
8
70
1
43
0.0
10
-43.965000000000032
20
-33.725000000000009
10
-43.965000000000032
20
-29.515000000000011
42
0.41421356237309509
10
-44.465000000000039
20
-29.015000000000022
10
-46.135000000000055
20
-29.015000000000022
42
0.41421356237309509
10
-46.635000000000062
20
-29.515000000000011
10
-46.635000000000062
20
-33.725000000000009
42
0.41421356237309509
10
-46.135000000000055
20
-34.225000000000009
10
-44.465000000000039
20
-34.225000000000009
42
0.41421356237309509
0
LWPOLYLINE
5
139
100
AcDbEntity
8
0
100
AcDbPolyline
90
8
70
1
43
0.0
10
69.16249999999998
20
-25.450000000000017
42
0.41421356237309509
10
69.662499999999994
20
-24.95000000000001
10
69.662499999999994
20
-13.150000000000013
42
0.41421356237309509
10
69.16249999999998
20
-12.650000000000006
10
54.662499999999952
20
-12.650000000000006
42
0.41421356237309509
10
54.16249999999998
20
-13.150000000000013
10
54.16249999999998
20
-24.95000000000001
42
0.41421356237309509
10
54.662499999999952
20
-25.450000000000017
0
LWPOLYLINE
5
140
100
AcDbEntity
8
0
100
AcDbPolyline
90
8
70
1
43
0.0
10
-68.45000000000006
20
-32.200000000000024
10
-68.450000000000003
20
-44.000000000000021
42
-0.41421356237307427
10
-68.950000000000045
20
-44.500000000000028
10
-83.450000000000045
20
-44.499999999999972
42
-0.41421356237307427
10
-83.950000000000031
20
-44.000000000000021
10
-83.950000000000045
20
-32.200000000000024
42
-0.41421356237309509
10
-83.450000000000045
20
-31.700000000000017
10
-68.950000000000045
20
-31.700000000000035
42
-0.41421356237309509
0
LWPOLYLINE
5
141
100
AcDbEntity
8
0
100
AcDbPolyline
90
8
70
1
43
0.0
10
73.212499999999991
20
-13.150000000000013
10
73.212499999999991
20
-24.95000000000001
42
0.41421356237309509
10
73.712499999999963
20
-25.450000000000017
10
88.212499999999991
20
-25.450000000000017
42
0.41421356237309509
10
88.712500000000006
20
-24.95000000000001
10
88.712499999999963
20
-13.150000000000013
42
0.41421356237309509
10
88.212499999999991
20
-12.650000000000006
10
73.712499999999963
20
-12.650000000000006
42
0.41421356237309509
0
LWPOLYLINE
5
142
100
AcDbEntity
8
0
100
AcDbPolyline
90
8
70
1
43
0.0
10
95.346249999999941
20
-22.925000000000004
42
0.41421356237309509
10
94.846249999999941
20
-23.425000000000011
10
94.846249999999941
20
-27.635000000000005
42
0.41421356237309509
10
95.346249999999941
20
-28.135000000000012
10
97.016249999999957
20
-28.135000000000012
42
0.41421356237309509
10
97.516249999999971
20
-27.635000000000005
10
97.516249999999971
20
-23.425000000000011
42
0.41421356237309509
10
97.016249999999957
20
-22.925000000000004
0
LWPOLYLINE
5
143
100
AcDbEntity
8
0
100
AcDbPolyline
90
8
70
1
43
0.0
10
-7.2500000000000142
20
-44.500000000000028
10
7.2499999999999787
20
-44.500000000000028
42
0.41421356237309509
10
7.7499999999999858
20
-43.999999999999986
10
7.7499999999999858
20
-32.200000000000024
42
0.41421356237309509
10
7.2499999999999787
20
-31.700000000000017
10
-7.2500000000000142
20
-31.700000000000017
42
0.41421356237309509
10
-7.7500000000000213
20
-32.200000000000024
10
-7.7500000000000213
20
-44.000000000000021
42
0.41421356237307427
0
LWPOLYLINE
5
144
100
AcDbEntity
8
0
100
AcDbPolyline
90
8
70
1
43
0.0
10
-109.64375000000005
20
-44.500000000000028
10
-95.14375000000004
20
-44.500000000000028
42
0.41421356237307427
10
-94.64375000000004
20
-44.000000000000021
10
-94.64375000000004
20
-32.200000000000024
42
0.41421356237309509
10
-95.14375000000004
20
-31.700000000000017
10
-109.64375000000005
20
-31.700000000000017
42
0.41421356237309509
10
-110.14375000000007
20
-32.200000000000024
10
-110.14375000000007
20
-43.999999999999986
42
0.41421356237309509
0
LWPOLYLINE
5
145
100
AcDbEntity
8
0
100
AcDbPolyline
90
8
70
1
43
0.0
10
16.562499999999964
20
-25.450000000000017
10
31.062499999999957
20
-25.450000000000017
42
0.41421356237309509
10
31.562499999999964
20
-24.95000000000001
10
31.562499999999964
20
-13.150000000000013
42
0.41421356237309509
10
31.062499999999957
20
-12.650000000000006
10
16.562499999999964
20
-12.650000000000006
42
0.41421356237309509
10
16.062499999999957
20
-13.150000000000013
10
16.062499999999957
20
-24.95000000000001
42
0.41421356237309509
0
LWPOLYLINE
5
146
100
AcDbEntity
8
0
100
AcDbPolyline
90
8
70
1
43
0.0
10
46.134999999999948
20
-29.015000000000022
10
44.464999999999968
20
-29.015000000000022
42
0.41421356237309509
10
43.964999999999961
20
-29.515000000000011
10
43.964999999999961
20
-33.725000000000009
42
0.41421356237309509
10
44.464999999999968
20
-34.225000000000009
10
46.134999999999948
20
-34.225000000000009
42
0.41421356237309509
10
46.634999999999955
20
-33.725000000000009
10
46.634999999999955
20
-29.515000000000011
42
0.41421356237309509
0
LWPOLYLINE
5
147
100
AcDbEntity
8
0
100
AcDbPolyline
90
8
70
1
43
0.0
10
-136.33750000000003
20
-43.999999999999986
42
0.41421356237309509
10
-135.83750000000006
20
-44.499999999999993
10
-121.33750000000005
20
-44.499999999999993
42
0.41421356237309509
10
-120.83750000000006
20
-43.999999999999986
10
-120.83750000000006
20
-32.200000000000024
42
0.41421356237309509
10
-121.33750000000005
20
-31.700000000000017
10
-135.83750000000006
20
-31.700000000000017
42
0.41421356237309509
10
-136.33750000000003
20
-32.200000000000024
0
LWPOLYLINE
5
148
100
AcDbEntity
8
0
100
AcDbPolyline
90
8
70
1
43
0.0
10
94.643749999999969
20
-32.200000000000024
10
94.643749999999969
20
-44.000000000000021
42
0.41421356237307427
10
95.14374999999994
20
-44.499999999999993
10
109.64374999999997
20
-44.499999999999993
42
0.41421356237309509
10
110.14374999999998
20
-43.999999999999986
10
110.14374999999994
20
-32.200000000000024
42
0.41421356237309509
10
109.64374999999997
20
-31.700000000000017
10
95.14374999999994
20
-31.700000000000017
42
0.41421356237309509
0
LWPOLYLINE
5
149
100
AcDbEntity
8
0
100
AcDbPolyline
90
8
70
1
43
0.0
10
121.33749999999999
20
-31.700000000000017
42
0.41421356237309509
10
120.83750000000002
20
-32.200000000000024
10
120.83749999999995
20
-44.000000000000021
42
0.41421356237307427
10
121.33749999999999
20
-44.500000000000028
10
135.83749999999995
20
-44.500000000000028
42
0.41421356237307427
10
136.33749999999998
20
-44.000000000000021
10
136.33749999999998
20
-32.200000000000024
42
0.41421356237309509
10
135.83749999999995
20
-31.700000000000017
0
LWPOLYLINE
5
150
100
AcDbEntity
8
0
100
AcDbPolyline
90
8
70
1
43
0.0
10
-45.350000000000037
20
44.499999999999993
10
-30.850000000000044
20
44.5
42
-0.41421356237309509
10
-30.350000000000037
20
43.999999999999993
10
-30.350000000000037
20
32.199999999999989
42
-0.41421356237309509
10
-30.850000000000044
20
31.699999999999982
10
-45.350000000000037
20
31.699999999999999
42
-0.41421356237309509
10
-45.850000000000023
20
32.199999999999989
10
-45.850000000000037
20
43.999999999999993
42
-0.41421356237309509
0
LWPOLYLINE
5
151
100
AcDbEntity
8
0
100
AcDbPolyline
90
8
70
1
43
0.0
10
-64.900000000000034
20
43.999999999999993
10
-64.900000000000034
20
32.199999999999989
42
0.41421356237309509
10
-64.400000000000048
20
31.699999999999982
10
-49.900000000000034
20
31.699999999999982
42
0.41421356237309509
10
-49.400000000000034
20
32.199999999999989
10
-49.400000000000034
20
43.999999999999993
42
0.41421356237309509
10
-49.900000000000034
20
44.499999999999993
10
-64.400000000000048
20
44.499999999999993
42
0.41421356237309509
0
LWPOLYLINE
5
152
100
AcDbEntity
8
0
100
AcDbPolyline
90
8
70
1
43
0.0
10
-26.300000000000061
20
31.699999999999982
10
-11.800000000000033
20
31.699999999999982
42
0.41421356237309509
10
-11.300000000000061
20
32.199999999999989
10
-11.300000000000026
20
43.999999999999993
42
0.41421356237309509
10
-11.800000000000033
20
44.499999999999993
10
-26.300000000000061
20
44.499999999999993
42
0.41421356237309509
10
-26.800000000000033
20
43.999999999999993
10
-26.800000000000033
20
32.199999999999989
42
0.41421356237309509
0
LWPOLYLINE
5
153
100
AcDbEntity
8
0
100
AcDbPolyline
90
8
70
1
43
0.0
10
108.98999999999994
20
34.224999999999994
10
110.65999999999995
20
34.224999999999994
42
-0.41421356237309509
10
111.15999999999997
20
33.724999999999987
10
111.15999999999997
20
29.514999999999993
42
-0.41421356237309509
10
110.65999999999995
20
29.014999999999986
10
108.98999999999994
20
29.015000000000022
42
-0.41421356237309509
10
108.48999999999997
20
29.514999999999993
10
108.48999999999992
20
33.724999999999987
42
-0.41421356237309509
0
LWPOLYLINE
5
154
100
AcDbEntity
8
0
100
AcDbPolyline
90
8
70
1
43
0.0
10
7.7499999999999858
20
43.999999999999993
42
0.41421356237309509
10
7.2499999999999787
20
44.499999999999993
10
-7.2500000000000142
20
44.499999999999993
42
0.41421356237309509
10
-7.7500000000000213
20
43.999999999999993
10
-7.7500000000000213
20
32.199999999999989
42
0.41421356237309509
10
-7.2500000000000142
20
31.699999999999982
10
7.2499999999999787
20
31.699999999999982
42
0.41421356237309509
10
7.7499999999999858
20
32.199999999999989
0
LWPOLYLINE
5
155
100
AcDbEntity
8
0
100
AcDbPolyline
90
8
70
1
43
0.0
10
30.849999999999973
20
44.499999999999993
42
0.41421356237309509
10
30.349999999999966
20
43.999999999999993
10
30.349999999999966
20
32.199999999999989
42
0.41421356237309509
10
30.849999999999973
20
31.699999999999982
10
45.349999999999966
20
31.699999999999982
42
0.41421356237309509
10
45.849999999999973
20
32.199999999999989
10
45.849999999999973
20
43.999999999999993
42
0.41421356237309509
10
45.349999999999966
20
44.499999999999993
0
LWPOLYLINE
5
156
100
AcDbEntity
8
0
100
AcDbPolyline
90
8
70
1
43
0.0
10
64.899999999999977
20
43.999999999999993
42
0.41421356237309509
10
64.399999999999977
20
44.499999999999993
10
49.899999999999984
20
44.499999999999993
42
0.41421356237309509
10
49.399999999999977
20
43.999999999999993
10
49.399999999999977
20
32.199999999999989
42
0.41421356237309509
10
49.899999999999984
20
31.699999999999982
10
64.399999999999977
20
31.699999999999982
42
0.41421356237309509
10
64.899999999999977
20
32.199999999999989
0
LWPOLYLINE
5
157
100
AcDbEntity
8
0
100
AcDbPolyline
90
8
70
1
43
0.0
10
139.15999999999997
20
33.724999999999987
10
139.16
20
29.514999999999993
42
-0.41421356237309509
10
138.66
20
29.014999999999986
10
136.98999999999998
20
29.014999999999951
42
-0.41421356237309509
10
136.48999999999995
20
29.514999999999993
10
136.48999999999998
20
33.724999999999987
42
-0.41421356237309509
10
136.98999999999998
20
34.224999999999994
10
138.66
20
34.224999999999959
42
-0.41421356237309509
0
LWPOLYLINE
5
158
100
AcDbEntity
8
0
100
AcDbPolyline
90
8
70
1
43
0.0
10
26.799999999999962
20
43.999999999999993
10
26.799999999999962
20
32.199999999999989
42
-0.41421356237309509
10
26.299999999999955
20
31.699999999999982
10
11.799999999999962
20
31.699999999999982
42
-0.41421356237309509
10
11.299999999999955
20
32.199999999999989
10
11.299999999999963
20
43.999999999999993
42
-0.41421356237309509
10
11.799999999999962
20
44.499999999999993
10
26.299999999999955
20
44.5
42
-0.41421356237309509
0
LWPOLYLINE
5
159
100
AcDbEntity
8
0
100
AcDbPolyline
90
8
70
1
43
0.0
10
-97.025000000000034
20
24.949999999999992
42
0.41421356237309509
10
-97.525000000000048
20
25.449999999999999
10
-112.02500000000003
20
25.449999999999982
42
0.41421356237309509
10
-112.52500000000005
20
24.949999999999992
10
-112.52500000000005
20
13.149999999999995
42
0.41421356237309509
10
-112.02500000000003
20
12.649999999999988
10
-97.525000000000048
20
12.649999999999988
42
0.41421356237309509
10
-97.025000000000034
20
13.149999999999995
0
LWPOLYLINE
5
160
100
AcDbEntity
8
0
100
AcDbPolyline
90
8
70
1
43
0.0
10
-77.975000000000023
20
24.949999999999992
42
0.41421356237309509
10
-78.475000000000037
20
25.449999999999999
10
-92.975000000000051
20
25.449999999999999
42
0.41421356237309509
10
-93.475000000000051
20
24.949999999999992
10
-93.475000000000037
20
13.149999999999995
42
0.41421356237309509
10
-92.975000000000051
20
12.649999999999988
10
-78.475000000000037
20
12.649999999999988
42
0.41421356237309509
10
-77.975000000000051
20
13.149999999999995
0
LWPOLYLINE
5
161
100
AcDbEntity
8
0
100
AcDbPolyline
90
8
70
1
43
0.0
10
131.07500000000002
20
31.699999999999982
42
0.41421356237309509
10
131.57499999999999
20
32.199999999999989
10
131.57499999999999
20
43.999999999999993
42
0.41421356237309509
10
131.07500000000002
20
44.499999999999993
10
116.57499999999999
20
44.499999999999993
42
0.41421356237309509
10
116.07499999999999
20
43.999999999999993
10
116.07499999999999
20
32.199999999999989
42
0.41421356237309509
10
116.57499999999999
20
31.699999999999982
0
LWPOLYLINE
5
162
100
AcDbEntity
8
0
100
AcDbPolyline
90
8
70
1
43
0.0
10
83.949999999999989
20
43.999999999999993
42
0.41421356237309509
10
83.449999999999989
20
44.499999999999993
10
68.949999999999989
20
44.499999999999993
42
0.41421356237309509
10
68.449999999999989
20
43.999999999999993
10
68.449999999999989
20
32.199999999999989
42
0.41421356237309509
10
68.949999999999989
20
31.699999999999982
10
83.449999999999989
20
31.699999999999982
42
0.41421356237309509
10
83.949999999999989
20
32.199999999999989
0
LWPOLYLINE
5
163
100
AcDbEntity
8
0
100
AcDbPolyline
90
8
70
1
43
0.0
10
87.999999999999943
20
44.499999999999993
10
102.49999999999993
20
44.5
42
-0.41421356237309509
10
102.99999999999994
20
43.999999999999993
10
102.99999999999994
20
32.199999999999989
42
-0.41421356237309509
10
102.49999999999993
20
31.699999999999982
10
87.999999999999943
20
31.699999999999982
42
-0.41421356237309509
10
87.499999999999929
20
32.199999999999989
10
87.499999999999929
20
43.999999999999993
42
-0.41421356237309509
0
LWPOLYLINE
5
164
100
AcDbEntity
8
0
100
AcDbPolyline
90
8
70
1
43
0.0
10
-120.83750000000006
20
24.949999999999992
42
0.41421356237309509
10
-121.33750000000005
20
25.449999999999999
10
-135.83750000000006
20
25.449999999999982
42
0.41421356237309509
10
-136.33750000000003
20
24.949999999999992
10
-136.33750000000003
20
13.149999999999995
42
0.41421356237309509
10
-135.83750000000006
20
12.649999999999988
10
-121.33750000000005
20
12.649999999999988
42
0.41421356237309509
10
-120.83750000000006
20
13.149999999999995
0
LWPOLYLINE
5
165
100
AcDbEntity
8
0
100
AcDbPolyline
90
8
70
1
43
0.0
10
36.324999999999967
20
24.949999999999992
10
36.324999999999967
20
13.149999999999995
42
-0.41421356237309509
10
35.82499999999996
20
12.649999999999988
10
21.324999999999967
20
12.649999999999988
42
-0.41421356237309509
10
20.82499999999996
20
13.149999999999995
10
20.824999999999978
20
24.949999999999992
42
-0.41421356237309509
10
21.324999999999967
20
25.449999999999982
10
35.82499999999996
20
25.449999999999999
42
-0.41421356237309509
0
LWPOLYLINE
5
166
100
AcDbEntity
8
0
100
AcDbPolyline
90
8
70
1
43
0.0
10
-73.925000000000054
20
25.449999999999999
42
0.41421356237309509
10
-74.425000000000068
20
24.949999999999992
10
-74.42500000000004
20
13.149999999999995
42
0.41421356237309509
10
-73.925000000000054
20
12.649999999999988
10
-59.42500000000004
20
12.649999999999988
42
0.41421356237309509
10
-58.92500000000004
20
13.149999999999995
10
-58.92500000000004
20
24.949999999999992
42
0.41421356237309509
10
-59.42500000000004
20
25.449999999999999
0
LWPOLYLINE
5
167
100
AcDbEntity
8
0
100
AcDbPolyline
90
8
70
1
43
0.0
10
39.874999999999972
20
24.949999999999992
10
39.874999999999972
20
13.149999999999995
42
0.41421356237309509
10
40.374999999999979
20
12.649999999999988
10
54.874999999999972
20
12.649999999999988
42
0.41421356237309509
10
55.374999999999979
20
13.149999999999995
10
55.374999999999979
20
24.949999999999992
42
0.41421356237309509
10
54.874999999999972
20
25.449999999999999
10
40.374999999999979
20
25.449999999999999
42
0.41421356237309509
0
LWPOLYLINE
5
168
100
AcDbEntity
8
0
100
AcDbPolyline
90
8
70
1
43
0.0
10
-54.875000000000043
20
25.449999999999999
42
0.41421356237309509
10
-55.37500000000005
20
24.949999999999992
10
-55.375000000000028
20
13.149999999999995
42
0.41421356237309509
10
-54.875000000000043
20
12.649999999999988
10
-40.375000000000028
20
12.649999999999988
42
0.41421356237309509
10
-39.875000000000043
20
13.149999999999995
10
-39.875000000000043
20
24.949999999999992
42
0.41421356237309509
10
-40.375000000000028
20
25.449999999999999
0
LWPOLYLINE
5
169
100
AcDbEntity
8
0
100
AcDbPolyline
90
8
70
1
43
0.0
10
17.274999999999991
20
24.949999999999992
10
17.274999999999991
20
13.149999999999995
42
-0.41421356237309509
10
16.774999999999984
20
12.649999999999988
10
2.2749999999999915
20
12.649999999999988
42
-0.41421356237309509
10
1.7749999999999844
20
13.149999999999995
10
1.7749999999999844
20
24.949999999999992
42
-0.41421356237309509
10
2.2749999999999915
20
25.449999999999999
10
16.774999999999984
20
25.449999999999999
42
-0.41421356237309509
0
LWPOLYLINE
5
170
100
AcDbEntity
8
0
100
AcDbPolyline
90
8
70
1
43
0.0
10
-16.775000000000055
20
25.449999999999999
42
0.41421356237309509
10
-17.275000000000063
20
24.949999999999992
10
-17.275000000000063
20
13.149999999999995
42
0.41421356237309509
10
-16.775000000000055
20
12.649999999999988
10
-2.275000000000027
20
12.649999999999988
42
0.41421356237309509
10
-1.7750000000000199
20
13.149999999999995
10
-1.7750000000000199
20
24.949999999999992
42
0.41421356237309509
10
-2.275000000000027
20
25.449999999999982
0
LWPOLYLINE
5
171
100
AcDbEntity
8
0
100
AcDbPolyline
90
8
70
1
43
0.0
10
-21.325000000000038
20
12.649999999999988
42
0.41421356237309509
10
-20.825000000000031
20
13.149999999999995
10
-20.825000000000067
20
24.949999999999992
42
0.41421356237309509
10
-21.325000000000038
20
25.449999999999999
10
-35.825000000000067
20
25.449999999999999
42
0.41421356237309509
10
-36.325000000000074
20
24.949999999999992
10
-36.325000000000074
20
13.149999999999995
42
0.41421356237309509
10
-35.825000000000067
20
12.649999999999988
0
ARC
5
172
100
AcDbEntity
8
0
100
AcDbCircle
10
113.32499999999996
20
47.125000000000014
30
0
40
0.49999999999997158
210
0
220
-0
230
1
100
AcDbArc
50
0
51
90
0
LINE
5
173
100
AcDbEntity
8
0
100
AcDbLine
10
113.82499999999993
20
47.125000000000014
30
0
11
113.82499999999993
21
46.875000000000028
31
0
0
ARC
5
174
100
AcDbEntity
8
0
100
AcDbCircle
10
114.32499999999997
20
46.875000000000028
30
0
40
0.50000000000004263
210
0
220
0
230
1
100
AcDbArc
50
180
51
270
0
LINE
5
175
100
AcDbEntity
8
0
100
AcDbLine
10
114.32499999999997
20
46.375000000000021
30
0
11
116.32499999999993
21
46.375000000000021
31
0
0
ARC
5
176
100
AcDbEntity
8
0
100
AcDbCircle
10
116.32499999999993
20
46.875000000000028
30
0
40
0.50000000000000711
210
0
220
0
230
1
100
AcDbArc
50
-90
51
0
0
ARC
5
177
100
AcDbEntity
8
0
100
AcDbCircle
10
117.32499999999995
20
46.875000000000028
30
0
40
0.50000000000000711
210
0
220
-0
230
1
100
AcDbArc
50
90
51
180
0
LINE
5
178
100
AcDbEntity
8
0
100
AcDbLine
10
117.32499999999995
20
47.375000000000036
30
0
11
130.32499999999999
21
47.375000000000036
31
0
0
ARC
5
179
100
AcDbEntity
8
0
100
AcDbCircle
10
130.32499999999999
20
46.875000000000028
30
0
40
0.49999999999997158
210
0
220
-0
230
1
100
AcDbArc
50
0
51
90
0
ARC
5
180
100
AcDbEntity
8
0
100
AcDbCircle
10
131.32499999999993
20
46.875000000000028
30
0
40
0.49999999999997158
210
0
220
0
230
1
100
AcDbArc
50
180
51
270
0
LINE
5
181
100
AcDbEntity
8
0
100
AcDbLine
10
133.32499999999996
20
46.375000000000057
30
0
11
131.32499999999993
21
46.375000000000057
31
0
0
ARC
5
182
100
AcDbEntity
8
0
100
AcDbCircle
10
133.32499999999996
20
46.875000000000028
30
0
40
0.49999999999997158
210
0
220
0
230
1
100
AcDbArc
50
-90
51
0
0
LINE
5
183
100
AcDbEntity
8
0
100
AcDbLine
10
133.82499999999999
20
47.125000000000014
30
0
11
133.82499999999993
21
46.875000000000028
31
0
0
ARC
5
184
100
AcDbEntity
8
0
100
AcDbCircle
10
134.32499999999999
20
47.125000000000014
30
0
40
0.50000000000004263
210
0
220
-0
230
1
100
AcDbArc
50
90
51
180
0
LINE
5
185
100
AcDbEntity
8
0
100
AcDbLine
10
134.32499999999999
20
47.625000000000057
30
0
11
140.625
21
47.625000000000057
31
0
0
ARC
5
186
100
AcDbEntity
8
0
100
AcDbCircle
10
140.625
20
45.375000000000043
30
0
40
2.2500000000000142
210
0
220
-0
230
1
100
AcDbArc
50
0
51
90
0
LINE
5
187
100
AcDbEntity
8
0
100
AcDbLine
10
142.875
20
45.375000000000043
30
0
11
142.875
21
-45.374999999999986
31
0
0
ARC
5
188
100
AcDbEntity
8
0
100
AcDbCircle
10
140.625
20
-45.374999999999986
30
0
40
2.2500000000000675
210
0
220
0
230
1
100
AcDbArc
50
-90
51
0
0
LINE
5
189
100
AcDbEntity
8
0
100
AcDbLine
10
-140.62500000000006
20
-47.625000000000057
30
0
11
140.625
21
-47.625000000000057
31
0
0
ARC
5
190
100
AcDbEntity
8
0
100
AcDbCircle
10
-140.62500000000006
20
-45.374999999999986
30
0
40
2.2500000000000142
210
0
220
0
230
1
100
AcDbArc
50
180
51
270
0
LINE
5
191
100
AcDbEntity
8
0
100
AcDbLine
10
-142.87500000000009
20
45.375000000000043
30
0
11
-142.87500000000009
21
-45.374999999999986
31
0
0
ARC
5
192
100
AcDbEntity
8
0
100
AcDbCircle
10
-140.62500000000006
20
45.375000000000043
30
0
40
2.2500000000000142
210
0
220
-0
230
1
100
AcDbArc
50
90
51
180
0
LINE
5
193
100
AcDbEntity
8
0
100
AcDbLine
10
-140.62500000000006
20
47.625000000000057
30
0
11
-134.32500000000007
21
47.625000000000057
31
0
0
ARC
5
194
100
AcDbEntity
8
0
100
AcDbCircle
10
-134.32500000000007
20
47.125000000000014
30
0
40
0.50000000000000711
210
0
220
-0
230
1
100
AcDbArc
50
0
51
90
0
LINE
5
195
100
AcDbEntity
8
0
100
AcDbLine
10
-133.82500000000007
20
47.125000000000014
30
0
11
-133.8250000000001
21
46.875000000000028
31
0
0
ARC
5
196
100
AcDbEntity
8
0
100
AcDbCircle
10
-133.3250000000001
20
46.875000000000028
30
0
40
0.50000000000000711
210
0
220
0
230
1
100
AcDbArc
50
180
51
270
0
LINE
5
197
100
AcDbEntity
8
0
100
AcDbLine
10
-133.3250000000001
20
46.375000000000057
30
0
11
-131.32500000000007
21
46.375000000000057
31
0
0
ARC
5
198
100
AcDbEntity
8
0
100
AcDbCircle
10
-131.32500000000007
20
46.875000000000028
30
0
40
0.49999999999997158
210
0
220
0
230
1
100
AcDbArc
50
-90
51
0
0
ARC
5
199
100
AcDbEntity
8
0
100
AcDbCircle
10
-130.3250000000001
20
46.875000000000028
30
0
40
0.50000000000000711
210
0
220
-0
230
1
100
AcDbArc
50
90
51
180
0
LINE
5
200
100
AcDbEntity
8
0
100
AcDbLine
10
-117.32500000000009
20
47.375000000000036
30
0
11
-130.3250000000001
21
47.375000000000036
31
0
0
ARC
5
201
100
AcDbEntity
8
0
100
AcDbCircle
10
-117.32500000000009
20
46.875000000000028
30
0
40
0.49999999999997158
210
0
220
-0
230
1
100
AcDbArc
50
0
51
90
0
ARC
5
202
100
AcDbEntity
8
0
100
AcDbCircle
10
-116.32500000000007
20
46.875000000000028
30
0
40
0.50000000000004263
210
0
220
0
230
1
100
AcDbArc
50
180
51
270
0
LINE
5
203
100
AcDbEntity
8
0
100
AcDbLine
10
-114.32500000000012
20
46.375000000000057
30
0
11
-116.32500000000007
21
46.375000000000057
31
0
0
ARC
5
204
100
AcDbEntity
8
0
100
AcDbCircle
10
-114.32500000000012
20
46.875000000000028
30
0
40
0.49999999999997158
210
0
220
0
230
1
100
AcDbArc
50
-90
51
0
0
LINE
5
205
100
AcDbEntity
8
0
100
AcDbLine
10
-113.8250000000001
20
47.125000000000014
30
0
11
-113.82500000000007
21
46.875000000000028
31
0
0
ARC
5
206
100
AcDbEntity
8
0
100
AcDbCircle
10
-113.3250000000001
20
47.125000000000014
30
0
40
0.50000000000004263
210
0
220
-0
230
1
100
AcDbArc
50
90
51
180
0
LINE
5
207
100
AcDbEntity
8
0
100
AcDbLine
10
-113.3250000000001
20
47.625000000000057
30
0
11
113.32499999999996
21
47.625000000000057
31
0
0
LINE
5
208
100
AcDbEntity
8
0
100
AcDbLine
10
-46.13500000000009
20
-47.185000000000031
30
0
11
-44.465000000000074
21
-47.185000000000031
31
0
0
ARC
5
209
100
AcDbEntity
8
0
100
AcDbCircle
10
-44.465000000000074
20
-46.685000000000024
30
0
40
0.50000000000000711
210
0
220
0
230
1
100
AcDbArc
50
-90
51
0
0
LINE
5
210
100
AcDbEntity
8
0
100
AcDbLine
10
-43.965000000000103
20
-42.475000000000016
30
0
11
-43.965000000000103
21
-46.685000000000024
31
0
0
ARC
5
211
100
AcDbEntity
8
0
100
AcDbCircle
10
-44.465000000000074
20
-42.475000000000016
30
0
40
0.49999999999997158
210
0
220
-0
230
1
100
AcDbArc
50
0
51
90
0
LINE
5
212
100
AcDbEntity
8
0
100
AcDbLine
10
-46.13500000000009
20
-41.975000000000009
30
0
11
-44.465000000000074
21
-41.975000000000009
31
0
0
ARC
5
213
100
AcDbEntity
8
0
100
AcDbCircle
10
-46.13500000000009
20
-42.475000000000016
30
0
40
0.50000000000000711
210
0
220
-0
230
1
100
AcDbArc
50
90
51
180
0
ARC
5
214
100
AcDbEntity
8
0
100
AcDbCircle
10
-46.13500000000009
20
-46.685000000000024
30
0
40
0.49999999999997158
210
0
220
0
230
1
100
AcDbArc
50
180
51
270
0
LINE
5
215
100
AcDbEntity
8
0
100
AcDbLine
10
-46.635000000000062
20
-42.475000000000016
30
0
11
-46.635000000000062
21
-46.685000000000024
31
0
0
LINE
5
216
100
AcDbEntity
8
0
100
AcDbLine
10
-42.84999999999998
20
-36.90000000000002
30
0
11
-45.249999999999986
21
-36.90000000000002
31
0
0
LINE
5
217
100
AcDbEntity
8
0
100
AcDbLine
10
-45.249999999999986
20
-36.90000000000002
30
0
11
-45.249999999999986
21
-39.300000000000018
31
0
0
LINE
5
218
100
AcDbEntity
8
0
100
AcDbLine
10
-42.84999999999998
20
-39.300000000000018
30
0
11
-42.84999999999998
21
-36.90000000000002
31
0
0
LINE
5
219
100
AcDbEntity
8
0
100
AcDbLine
10
-45.249999999999986
20
-39.300000000000018
30
0
11
-42.84999999999998
21
-39.300000000000018
31
0
0
CIRCLE
5
220
100
AcDbEntity
8
0
100
AcDbCircle
10
-37.999999999999986
20
-38.100000000000016
30
0
40
3.1499999999999999
210
0
220
-0
230
1
0
LINE
5
221
100
AcDbEntity
8
0
100
AcDbLine
10
-33.149999999999991
20
-36.90000000000002
30
0
11
-30.749999999999989
21
-36.90000000000002
31
0
0
LINE
5
222
100
AcDbEntity
8
0
100
AcDbLine
10
-30.749999999999989
20
-36.90000000000002
30
0
11
-30.749999999999989
21
-39.300000000000018
31
0
0
LINE
5
223
100
AcDbEntity
8
0
100
AcDbLine
10
-33.149999999999991
20
-39.300000000000018
30
0
11
-33.149999999999991
21
-36.90000000000002
31
0
0
LINE
5
224
100
AcDbEntity
8
0
100
AcDbLine
10
-30.749999999999989
20
-39.300000000000018
30
0
11
-33.149999999999991
21
-39.300000000000018
31
0
0
ARC
5
225
100
AcDbEntity
8
0
100
AcDbCircle
10
46.134999999999948
20
-46.685000000000024
30
0
40
0.49999999999998934
210
0
220
0
230
1
100
AcDbArc
50
-90
51
0
0
LINE
5
226
100
AcDbEntity
8
0
100
AcDbLine
10
44.464999999999932
20
-47.185000000000016
30
0
11
46.134999999999948
21
-47.185000000000016
31
0
0
ARC
5
227
100
AcDbEntity
8
0
100
AcDbCircle
10
44.464999999999932
20
-46.685000000000024
30
0
40
0.49999999999997158
210
0
220
0
230
1
100
AcDbArc
50
180
51
270
0
LINE
5
228
100
AcDbEntity
8
0
100
AcDbLine
10
43.964999999999961
20
-42.475000000000016
30
0
11
43.964999999999961
21
-46.685000000000024
31
0
0
ARC
5
229
100
AcDbEntity
8
0
100
AcDbCircle
10
44.464999999999932
20
-42.475000000000016
30
0
40
0.50000000000000711
210
0
220
-0
230
1
100
AcDbArc
50
90
51
180
0
LINE
5
230
100
AcDbEntity
8
0
100
AcDbLine
10
44.464999999999932
20
-41.975000000000009
30
0
11
46.134999999999948
21
-41.975000000000009
31
0
0
ARC
5
231
100
AcDbEntity
8
0
100
AcDbCircle
10
46.134999999999948
20
-42.475000000000016
30
0
40
0.49999999999997158
210
0
220
-0
230
1
100
AcDbArc
50
0
51
90
0
LINE
5
232
100
AcDbEntity
8
0
100
AcDbLine
10
46.63499999999992
20
-42.475000000000016
30
0
11
46.63499999999992
21
-46.685000000000024
31
0
0
ENDSEC
0
SECTION
2
OBJECTS
0
DICTIONARY
5
C
100
AcDbDictionary
3
ACAD_GROUP
350
D
3
ACAD_MLINESTYLE
350
17
0
DICTIONARY
5
D
100
AcDbDictionary
0
DICTIONARY
5
1A
330
C
100
AcDbDictionary
0
DICTIONARY
5
17
100
AcDbDictionary
0
ENDSEC
0
EOF
